<svg
  xmlns="http://www.w3.org/2000/svg"
  xmlns:svg="http://www.w3.org/2000/svg"
  xmlns:dc="http://purl.org/dc/elements/1.1/"
  xmlns:cc="http://creativecommons.org/ns#"
  xmlns:rdf="http://www.w3.org/1999/02/22-rdf-syntax-ns#"
  title="Roger Sperberg copyeditor resume"
  height="792pt"
  width="612pt"
  version="1.1"
  id="svg21078"
  >
  <defs>
    <style type="text/css">
      @import url('https://fonts.googleapis.com/css?family=Alegreya+Sans:400,400i,500, 500i,700,900');
      text { font-family: "Alegreya Sans"; font-size: 12pt; color: #000000; font-weight:500; }
      #text01 { font-size: 21pt; }
      #text02 { font-size: 15pt; }
      #text03, #text04, tspan { font-size: 12pt; }
      .italic { font-weight: 500i; font-style: italic; }
      .skill { font-weight: 900; font-size: 10pt; letter-spacing:0.1pt; text-anchor:middle; }
    </style>
  </defs>
  <title
     id="title01">Roger Sperberg copyeditor</title>

  <g id="top-group">
    <text id="text01" text-start="middle" x="306pt" y="36pt" style="letter-spacing:0.57pt; text-anchor:middle; font-weight:900;">Roger Sperberg</text>
    <text id="text02" text-start="middle" x="306pt" y="58pt" style="text-anchor:middle; font-weight:500;">Copyeditor / Proofreader</text>
    <text id="text03" text-start="middle" x="306pt" y="73pt" style="text-anchor:middle; font-weight:500;">Experienced print and electronic copyeditor, familiar with production needs and good with deadlines.</text>
    <text id="text04" text-start="middle" x="306pt" y="85pt" style="text-anchor:middle; font-weight:500;">Available for full-time or part-time work, remote or on-site in the metro New York area.</text>
  </g>

  <g id="diagram-tree"> <!-- The tree, icons and labels -->
    <line x1="408" y1="200" x2="408" y2="910" stroke-width="3pt" stroke="#90b2ca" stroke-linecap="butt" />

    <g id="circle1-contact"><!-- grouped white bg, contact icon, circle, line, bar with white text -->
      <circle cx="408" cy="176" r="18pt" stroke-width="0" stroke="#ffffff" fill="#ffffff" opacity="1.0" />
      <g transform="scale(0.38) translate(776 167) ">
           <title>identity card (e.g., contact info) icon</title>
           <path d="m341 328c0.375-0.178 0.845-0.591 1.04-0.919 0.352-0.576 0.364-1.59 0.364-30.6l7.8e-4 -30-0.404-0.514c-0.895-1.14-0.0364-1.09-18.1-1.09h-16.6v3.26c0 3.01-0.0314 3.3-0.401 3.77l-0.401 0.51h-9.34c-9.25 0-9.35-3e-3 -9.71-0.407-0.327-0.361-0.376-0.786-0.43-3.77l-0.0609-3.37h-16.4c-17.9 0-17.1-0.0514-18 1.09l-0.404 0.514 7.4e-4 30c7.9e-4 29.8 3e-3 30 0.391 30.7 0.776 1.27-2.59 1.18 44.7 1.19 39.8 6e-3 43.1-0.0157 43.7-0.316zm-36.6-69.7-0.0559-11.2-0.561-1.22c-1.36-2.95-4.75-4.73-7.79-4.1-2.45 0.506-4.15 1.81-5.24 4.01l-0.731 1.48-0.0574 11.1-0.0571 11.1h14.5l-0.0558-11.2zm-51.1 72.7c-1.69-0.457-3.06-1.65-3.73-3.27-0.262-0.627-0.296-4.25-0.295-31.2l2e-3 -30.4 0.454-0.975c0.587-1.26 2.01-2.52 3.28-2.9 0.832-0.247 3.4-0.289 17.5-0.289h16.5l3e-3 -6.82c3e-3 -7.53 0.12-8.61 1.15-10.7 2.63-5.32 9.48-7.24 14.4-4.06 1.9 1.22 3.36 3.04 4.18 5.24 0.41 1.1 0.431 1.47 0.497 8.74l0.0687 7.6h16.6c14.2 0 16.7 0.0423 17.6 0.289 1.27 0.377 2.7 1.64 3.28 2.9l0.454 0.975 2e-3 30.5 2e-3 30.5-0.497 0.997c-0.574 1.15-1.53 2.06-2.78 2.64l-0.881 0.408-43.5 0.0364c-34.6 0.0283-43.6-0.0126-44.4-0.21z"
              fill="#000000"
              stroke-width="1.07"/>
           <g transform="translate(0 -23.5)">
              <path d="m330 338v-2.27h-66.8v4.54h66.8zm-68.7 4.8c-0.226-0.0912-0.491-0.377-0.59-0.636-0.0982-0.259-0.179-2.21-0.179-4.34 0-3.64 0.0235-3.89 0.376-4.34l0.376-0.478h70.6l0.455 0.455 0.455 0.455-0.0547 4.17c-0.0488 3.71-0.09 4.2-0.379 4.49-0.308 0.308-2.01 0.325-35.5 0.358-20.9 0.0206-35.3-0.0326-35.6-0.131z"
              fill="#d40000"/>
           </g>
           <path d="m284 298c0.0824-3.48-0.419-4.86-2.13-5.87l-0.829-0.488-6.99-0.055c-7.74-0.0609-8.05-0.0265-9.27 1.02-1.25 1.07-1.43 1.68-1.43 4.89l-3e-3 2.77 10.3-0.0468 10.3-0.0468 0.0515-2.17zm-22.8 4.85c-0.455-0.304-0.522-1.05-0.435-4.86l0.0906-4 0.596-1.21c0.692-1.4 1.83-2.5 3.3-3.21l0.998-0.474 7.52-0.0529c7.14-0.0503 7.58-0.0344 8.71 0.317 2.13 0.662 3.84 2.37 4.47 4.46 0.39 1.3 0.374 8.19-0.0206 8.75l-0.282 0.403-12.4-3e-3c-6.81-1e-3 -12.5-0.0626-12.6-0.136z"
              fill="#0000ff"/>
           <path d="m296 302c-0.602-0.221-0.907-0.667-0.907-1.32 0-1.37-1.47-1.28 18.7-1.23l18 0.0462 0.356 0.477c0.269 0.36 0.325 0.621 0.228 1.06-0.25 1.14 0.464 1.1-18.7 1.08-9.56-9e-3 -17.5-0.0594-17.7-0.114z"
              fill="#999999"/>
           <path d="m295 293c-0.476-0.334-0.557-1.43-0.146-2 0.251-0.344 0.676-0.353 18-0.4 12.4-0.0338 17.9 0.0118 18.2 0.148 0.457 0.189 0.885 0.835 0.885 1.34 0 0.131-0.169 0.454-0.376 0.717l-0.376 0.478h-17.9c-15.9 0-18-0.0315-18.3-0.282z"
              fill="#808080"/>
           <path d="m275 284c2.66-1.19 3.72-4.28 2.33-6.83-0.991-1.82-2.84-2.83-4.91-2.67-2.63 0.199-4.63 2.35-4.65 5.03-0.0265 3.04 2.48 5.3 5.51 4.97 0.449-0.05 1.22-0.274 1.72-0.498zm-4.35 3.1c-2.61-0.868-4.64-2.87-5.44-5.36-0.496-1.53-0.325-3.77 0.409-5.34 0.742-1.59 2.11-2.96 3.75-3.76 1.11-0.546 1.46-0.626 2.99-0.687 1.43-0.0565 1.95 1e-3 2.9 0.325 2.84 0.961 4.82 3.28 5.33 6.26 0.55 3.21-1.36 6.64-4.52 8.12-1.04 0.484-1.45 0.573-2.95 0.626-1.13 0.0394-2-0.0235-2.47-0.18z" fill="#0000ff"/>
           <path d="m295 284c-0.431-0.476-0.387-1.53 0.0815-1.95 0.369-0.334 0.965-0.347 17.9-0.395 11.1-0.0309 17.7 0.0176 18 0.128 0.986 0.375 1.28 1.55 0.562 2.27-0.255 0.255-2.17 0.285-18.3 0.285-17.2 0-18-0.0147-18.3-0.332z"
              fill="#808080"/>
           <path d="m298 253c0.672-0.494 0.932-1.1 0.845-1.99-0.184-1.86-2.46-2.59-3.76-1.2-0.586 0.623-0.629 2.19-0.0774 2.8 0.818 0.916 2.05 1.07 2.99 0.383zm-2.31 3.05c-0.964-0.193-1.36-0.407-2.26-1.22-1.15-1.04-1.51-1.88-1.51-3.58 0-1.74 0.366-2.57 1.62-3.67 1.8-1.58 4.57-1.58 6.37 0 1.25 1.1 1.62 1.93 1.62 3.67 0 1.7-0.353 2.54-1.52 3.59-1.21 1.09-2.75 1.52-4.32 1.21z"
              fill="#808080"/>
      </g> <!-- identity card -->
      <line x1="432" y1="176" x2="528" y2="176" stroke-width="3pt" stroke="#90b2ca" stroke-linecap="butt" />
      <line x1="528" y1="176" x2="720" y2="176" stroke-width="36pt" stroke="#90b2ca" stroke-linecap="butt" />
      <text id="text05" text-start="middle" x="624" y="182" style="fill: #ffffff; stroke: none; font-size: 21px; letter-spacing:0.3pt; text-anchor:middle; font-weight:700; ">Contact Info</text>
      <circle cx="408" cy="176" r="18pt" stroke-width="3pt" stroke="#90b2ca" fill-opacity="0.0" />
    </g> <!-- circle1-contact -->


    <g id="circle2-positions"><!-- grouped white bg, icon, circle, line, bar with white text -->
      <circle cx="408" cy="324" r="18pt" stroke-width="0" stroke="#ffffff" fill="#ffffff" opacity="1.0" />
      <g>
           <title>Companies (office buildings) icon</title>
           <g transform="translate(391,305) scale(0.032)">
               <path d="m0 1.1e3 87.7-1.56 0.336-350 0.336-350h64v-97.3h293v-304h333v97.3h203l0.335 502 0.335 502 144 1.56c-0.444 47.1-0.444-19.9-0.444 47.1h-591l-535 1.22c0.297-70.3 0 0-0.34-48.3zm446-326v-325h-309v651h309zm-259 206v-24.7h208v49.3h-208zm0-139v-24.7h208v49.3h-208zm0-139v-24.7h208v49.3h-208zm0-135v-24.7h208v49.3h-208zm412 434v-97.3h216v195l59-0.347 59-0.347v-955h-439l-0.341 476c-0.188 262-0.0565 477 0.291 478 0.491 1.29 12.3 1.67 52.7 1.67h52zm-52-378v-24.7h333v49.3h-333zm0-161v-24.7h333v49.3h-333zm0-161v-24.7h333v49.3h-333zm219 725v-73.3h-117v147h117zm-329-651v-24h-236v48h236zm293-305v-24.7l-118 0.341-118 0.341-0.367 22.6c-0.202 12.4-0.0707 23.4 0.291 24.3 0.53 1.38 23.6 1.72 118 1.72h117z" fill="#000000" stroke-width="1.33"/>
          </g>
      </g> <!-- Work icon -->
      <line x1="292" y1="324" x2="384" y2="324" stroke-width="3pt" stroke="#90b2ca" stroke-linecap="butt" />
      <line x1="96" y1="324" x2="292" y2="324" stroke-width="36pt" stroke="#90b2ca" stroke-linecap="butt" />
      <text id="text09" text-start="middle" x="198" y="330" style="fill: #ffffff; stroke: none; font-size: 21px; letter-spacing:0.3pt; text-anchor:middle; font-weight:700; ">Positions</text>
      <circle cx="408" cy="324" r="18pt" stroke-width="3pt" stroke="#90b2ca" fill-opacity="0.0" />
    </g> <!-- circle2-positions -->


    <g id="circle3-freelance"><!-- grouped white bg, icon, circle, line, bar with white text -->
      <circle cx="408" cy="414" r="18pt" stroke-width="0" stroke="#ffffff" fill="#ffffff" opacity="1.0" />
      <g>
           <title>freelance (remote location) icon</title>
           <g transform="translate(391,355) scale(0.078)">
               <path d="m421 881c1.82-1.24 4.25-3.52 5.4-5.07 2.05-2.77 2.09-3.69 2.09-50.6v-47.8l-2.73-3.58c-4.52-5.93-8.6-6.87-28.3-6.54l-17 0.282-0.26 56.5c-0.143 31.1-0.0444 57.1 0.219 57.8 0.359 0.937 5.08 1.25 18.9 1.25 17.4 0 18.6-0.118 21.7-2.25zm-292-36-0.255-106h-19.5-19.5l-0.293 85c-0.207 60 0.0388 86.8 0.835 91 3.54 18.8 20.4 36.2 35.2 36.4l3.75 0.0521-0.255-106zm-46.9 143c-6.98-2.87-10.4-5.25-15.8-11.2-5.36-5.81-9.7-15.1-11.1-23.5-1.24-7.76-1.45-249-0.225-251 0.633-0.997 33.8-1.2 163-1l162 0.253 0.5 21.5 0.5 21.5 20.5 0.559c18.4 0.501 21.1 0.804 26.5 2.91 8.28 3.24 18.2 13.2 21.6 21.5 2.39 5.98 2.4 6.15 2.71 51.7 0.199 29-0.0695 47.8-0.734 51.4-2.38 12.9-10.2 23.4-21.6 29-5.91 2.9-6.19 2.93-25.5 3.2-10.7 0.148-20.5 0.485-21.7 0.75-2.15 0.476-2.18 0.757-2.53 25.7-0.325 23.2-0.533 25.7-2.54 30.7-5.15 12.8-14.4 22.2-25.6 26.1-5.44 1.91-8.93 1.96-135 1.94l-129-0.0237-5.61-2.31z" fill="#000000"/>
               <g fill="#ff6600">
                  <path d="m213 670c-5.7-2.34-7.45-3.79-10.1-8.37-3.18-5.42-3.68-14-1.12-18.9 4.94-9.43 16.2-13.8 25.5-9.95 19 7.96 14.7 36.4-5.82 38-3.07 0.243-6.75-0.107-8.45-0.802z"/>
                  <path d="m157 612c-4.72-3.02-7.7-9.83-6.84-15.6 1.61-10.8 22.7-26.1 45.2-33 7.95-2.43 10.4-2.69 25.3-2.75 14.3-0.0589 17.5 0.232 24.4 2.21 15.2 4.39 30 12.5 40 22.1 7.68 7.31 9.53 14.1 5.79 21.1-2.87 5.41-7.42 7.98-14.1 7.98-6.14 0-7.58-0.715-15.4-7.68-5.69-5.06-16.7-10.7-25.1-12.8-9.48-2.41-23.9-2-33.2 0.95-8.61 2.72-17.9 7.89-23.3 12.9-5.96 5.6-8.06 6.59-14 6.57-3.84-0.0117-6.5-0.642-8.72-2.06z"/>
                  <path d="m333 569c-1.73-0.752-6.83-4.77-11.3-8.92-19.8-18.2-44.8-30.7-72.6-36.3-13.5-2.72-44.4-2.46-57.7 0.468-26.7 5.87-52 18.6-70.3 35.4-3.84 3.52-8.09 7.17-9.45 8.1-2.68 1.83-10.4 2.27-14.2 0.808-3.64-1.39-7.71-6.04-8.97-10.3-1.92-6.41 0.138-11.2 7.99-18.7 24.1-23 56-39.4 90.3-46.3 9.85-1.98 14.4-2.3 33.9-2.31 19.6-0.012 24 0.284 34 2.31 28 5.68 52.3 16.4 75.1 33.3 11.6 8.58 22.6 19.4 24 23.6 2.32 7.03-1.08 15.5-7.38 18.4-4.92 2.23-8.99 2.39-13.3 0.499z"/>
               </g>
          </g>
      </g> <!-- freelance work icon -->
      <line x1="432" y1="414" x2="528" y2="414" stroke-width="3pt" stroke="#90b2ca" stroke-linecap="butt" />
      <line x1="528" y1="414" x2="720" y2="414" stroke-width="36pt" stroke="#90b2ca" stroke-linecap="butt" />
      <text id="text09" text-start="middle" x="624" y="420" style="fill: #ffffff; stroke: none; font-size: 21px; letter-spacing:0.3pt; text-anchor:middle; font-weight:700; ">Freelance Work</text>
      <circle cx="408" cy="414" r="18pt" stroke-width="3pt" stroke="#90b2ca" fill-opacity="0.0" />
    </g> <!-- circle3-freelance -->


    <g id="circle4-education"><!-- grouped white bg, icon, circle, line, bar with white text -->
      <circle cx="408" cy="814" r="18pt" stroke-width="0" stroke="#ffffff" fill="#ffffff" opacity="1.0" />
      <g>
           <title>education icon</title>
           <g transform="translate(388,800) scale(0.078)">
             <path d="m123 360c-3.54-1.54-7.55-5.99-9.38-10.4-1.13-2.72-0.157-11.7 7.92-73.4 7.82-59.7 10.1-75.7 9.99-70.2-0.0102 0.504 4.1 32.3 9.13 70.7 9.07 69.2 9.14 69.8 7.4 73.7-2.07 4.59-5.91 8.49-9.83 9.97-3.83 1.45-11.5 1.27-15.2-0.343z" fill="#ffcc00"/>
             <g fill="#000000">
                <path d="m229 335c-19.7-2.47-47.6-10.2-61.5-17.2l-6.5-3.22-6.32-50.8c-3.48-28-6.07-51.1-5.77-51.4 0.304-0.305 21.3 9.45 46.7 21.7 52 25.1 55 26.1 66.7 23.7 5.17-1.08 23.6-9.5 76.8-35.1 38.5-18.5 71.2-34.4 72.7-35.1l2.79-1.43-0.287 35.3-0.287 35.3-3.38 6.65c-6.04 11.9-20.2 25.9-38.4 38-25.9 17.2-60.4 29.6-93.7 33.7-10 1.21-39.5 1.15-49.5-0.106z"/>
                <path d="m102 269c-6.76-10.5-6.78-10.7-6.78-48.8v-34.4l10.2 5.12c5.64 2.82 10.4 5.25 10.6 5.39 0.497 0.445-9.24 78.5-9.79 78.5-0.28-5e-3 -2.18-2.6-4.22-5.78z"/>
                <path d="m249 243c-2.48-0.451-5.62-1.27-7-1.82-6.95-2.78-97.7-46.5-98.8-47.6-0.708-0.703-1-2.02-0.656-2.92 0.347-0.904 22.9-13.2 50.1-27.3l49.5-25.6 7.2 1.03c9.24 1.32 17.5 0.141 24.6-3.51 10.6-5.4 13.3-14.7 6.58-22.2-5.74-6.36-12.1-8.57-24.5-8.57-12.1 0-18.3 2.06-24.1 8.06-2.78 2.87-3.46 4.45-3.88 9.01l-0.508 5.53-50.5 26.2c-40.5 21.1-50.7 26.7-51.5 28.8-0.921 2.23-1.36 2.42-3.55 1.53-12.3-5.02-117-55.6-119-57.5-3.34-3.09-3.51-6.13-0.5-8.89 2.99-2.75 3.52-3.01 131-63.9l111-52.9h11.5 11.5l119 57c65.7 31.4 121 58.1 122 59.3 3.52 2.96 3.53 6.08 0.0296 9.35-2.39 2.23-224 108-238 114-6.38 2.59-15.6 3.61-22 2.44z"/>
             </g>
          </g>
      </g> <!-- education icon -->
      <line x1="292" y1="814" x2="384" y2="814" stroke-width="3pt" stroke="#90b2ca" stroke-linecap="butt" />
      <line x1="96" y1="814" x2="292" y2="814" stroke-width="36pt" stroke="#90b2ca" stroke-linecap="butt" />
      <text id="text09" text-start="middle" x="198" y="820" style="fill: #ffffff; stroke: none; font-size: 21px; letter-spacing:0.3pt; text-anchor:middle; font-weight:700; ">Education</text>
      <circle cx="408" cy="814" r="18pt" stroke-width="3pt" stroke="#90b2ca" fill-opacity="0.0" />
    </g> <!-- circle4-education -->


    <g id="circle5-skills"><!-- grouped white bg, icon, circle, line, bar with white text -->
      <circle cx="408" cy="934" r="18pt" stroke-width="0" stroke="#ffffff" fill="#ffffff" opacity="1.0" />
      <g transform="matrix(.204 0 0 .204 -.116 4.52e-5) scale(0.38) translate(5040 11780)">
           <title>skills (strengths) icon</title>
           <path d="m287 453c-80.4-6.8-172-36.9-246-80.6l-21.8-13c3.25-7.6 5.13-15.5 6.96-23.3 0.544-2.32 1.1-4.63 1.67-6.92 1.69-6.62 3.56-17.4 5.73-29.9 3.12-18 7-40.3 10.5-49.3l47.9-123c1.05-2.68 2-5.57 2.98-8.52 2.59-7.89 5.28-16.1 10.3-20.5 2.83-2.5 6.52-4.35 10.1-5.99 0.416-0.184 0.808-0.408 1.17-0.664l94.8-72.6c4.75-3.66 11.3-3.61 16 0.16l47.6 38c3.01 2.41 4.78 6 4.86 9.86s-1.53 7.52-4.43 10.1l-30.3 26.5c-5.15 4.5-12.9 4.22-17.8-0.584-2.77-2.77-4.13-6.58-3.74-10.5 0.392-3.89 2.48-7.37 5.74-9.54l2.69-1.8-8.89-13.3-2.68 1.79c-7.26 4.83-11.9 12.6-12.8 21.3s2.18 17.2 8.35 23.4c10.8 10.8 28.2 11.3 39.6 1.32l25.5-22.3 7.85 11.8-47.9 41.1-57.3-7.16c0.872-4.1 1.87-8.17 3.04-12.2l-15.4-4.46c-5.37 18.5-7.85 37.6-7.41 56.8 0.24 10.3 1.34 20.6 2.42 30.6 1.25 11.7 2.43 22.7 2.36 33.9-0.216 33.5-13.2 64.8-34.7 83.7l10.5 12c15.2-13.4 26.5-31.4 33.2-52 2.42-0.808 5.49-0.752 8.5-0.496 10.5 0.936 20.7 3.82 30.3 8.13-3.9 6.27-7.09 13-9.46 20l15.2 5.1c2.06-6.15 4.9-12 8.38-17.4 0.192 0.128 0.4 0.224 0.584 0.352l7.67-11.2c15.1-16.9 37.3-28.6 63.1-32.5 38.7-5.8 74.6 7.46 94 34.5l13-9.31c-8.03-11.2-18.4-20.4-30.5-27.4 23.2-19.3 56.7-26.2 85.3-16.3l5.25-15.1c-36.1-12.6-78.8-2.4-106 24-19-7.26-40.8-9.61-63.3-6.23-29.9 4.46-55.7 18.3-73.2 38.3-12.1-5.93-25.3-9.66-38.7-10.9-1.77-0.16-3.66-0.232-5.6-0.216 1.66-8.7 2.6-17.7 2.66-27 0.08-12.1-1.21-24.1-2.46-35.8-1.03-9.62-2.1-19.6-2.32-29.2-0.192-8.03 0.256-16 1.18-24l61.3 7.66c0.352 0.024 0.688 0.048 1.02 0.048 1.9 0 3.75-0.68 5.2-1.93l56-48c3.08-2.63 3.7-7.14 1.46-10.5l-14-21.1c2.39-4.38 3.77-9.29 3.66-14.4-0.184-8.61-4.16-16.6-10.9-22l-47.5-38c-10.5-8.37-25.2-8.5-35.8-0.336l-90.6 69.7-2.96 2.02c-4.28 1.99-9.14 4.54-13.3 8.22-8.29 7.29-11.8 18-14.9 27.5-0.872 2.66-1.74 5.28-2.68 7.71l-47.9 123c-4.09 10.5-7.79 31.8-11.4 52.4-2.02 11.6-3.93 22.6-5.46 28.7-0.608 2.38-1.18 4.78-1.74 7.18-2.24 9.49-4.36 18.4-8.78 26.1-2.19 3.79-0.928 8.65 2.83 10.9l28.2 16.7c75.5 44.9 170 75.8 253 82.8 6.41 0.544 14.5 0.864 23.7 0.864 46 0 120-8.05 155-37.1l-10.2-12.3c-36.4 30-127 36-168 32.6z"/>

      </g> <!-- strength icon -->
      <line x1="432" y1="934" x2="528" y2="934" stroke-width="3pt" stroke="#90b2ca" stroke-linecap="butt" />
      <line x1="528" y1="934" x2="720" y2="934" stroke-width="36pt" stroke="#90b2ca" stroke-linecap="butt" />
      <text id="text09" text-start="middle" x="624" y="940" style="fill: #ffffff; stroke: none; font-size: 21px; letter-spacing:0.3pt; text-anchor:middle; font-weight:700; ">Skills</text>
      <circle cx="408" cy="934" r="18pt" stroke-width="3pt" stroke="#90b2ca" fill-opacity="0.0" />
    </g> <!-- circle5-skills -->


    <!-- +++++++++++++++++++++++++ ++++++++++++++++++++++++++++ ++++++++++ -->
    <g id="skills-icons">
        <g transform="translate(472,984) scale(0.109)">
          <title>HTML5 Logo</title>
          <path d="m33 370-33-370h363l-33 370-149 41.2" fill="#e44d26"/>
          <path d="m181 380v-349h148l-28.3 316" fill="#f16529"/>
          <path d="m67.4 75.7h114v45.4h-64.2l4.2 46.5h60v45.3h-102m2 22.8h45.6l3.2 36.3 50.8 13.6v47.4l-93.2-26" fill="#ebebeb"/>
          <path d="m295 75.7h-114v45.4h110m-4.1 46.5h-106v45.4h56l-5.3 59-50.7 13.6v47.2l93-25.8" fill="#ffffff"/>
        </g>

        <g id="css-icon" transform="translate(525,974) scale(0.113)">
          <g id="#0170baff">
             <path d="m0 92.5c114-0.01 228-0.02 342 0-6.27 70.8-12.4 142-19 213-3.88 45.3-7.88 90.5-12.1 136-24.3 6.44-48.4 13.8-72.7 20.2-22.3 6.55-44.8 12.5-67.2 19h-0.66c-21.2-6.32-42.7-11.9-64-18.2-25.1-6.76-49.9-14.3-75-21-3.27-33.9-6.22-67.8-9.13-102-5.49-62.7-11.5-125-16.7-188-1.83-18.9-3.14-37.8-5.33-56.6v-1.87m171 28c-0.24 13.6 0.18 27.2-0.24 40.8-39.1-0.14-78.2-0.03-117 0.01 0.67 13.2 2.44 26.3 4.26 39.4 36.4 1.35 72.8-0.05 109 1.04-31.8 14.3-64 27.7-96 41.7-2.74 1.22-5.67 2.14-8.12 3.92 0.27 14.5 2.61 28.9 3.64 43.4 19.4-0.07 38.8-0.38 58.1-0.41 15.5-0.08 31.1 0.23 46.6-0.11-0.74 23.9 0.23 47.8-0.5 71.6-10.4-1.55-20.8-3.88-31.2-5.73-8.21-1.79-16.6-2.72-24.7-5.07-1.15-11.4-1.95-22.9-2.97-34.4-2.34-0.72-4.82-0.65-7.24-0.69-11.7 0.07-23.5-0.04-35.2 0.14 1.15 22 3.13 44 6.5 65.8 11.6 3.02 23.2 5.98 34.7 9.13 17.7 4.82 35.6 8.83 53.4 13.6 2.11 0.45 4.24 1.23 6.43 1.05 1.18 14.5 0.27 29.1 0.49 43.6 4.09-0.66 8.11-1.67 12.1-2.89 33.6-9.12 67.1-18.4 101-27.6 1.67-13.2 2.45-26.5 3.77-39.7 3.49-40.2 7.01-80.4 10.7-121 4.29-46 8-92 12.3-138-46.5 0.04-92.9-0.09-139 0.06z" fill="#0170ba"/>
          </g>
          <g id="#29a9dfff" fill="#29a9df">
             <path d="m171 120c46.5-0.15 92.9-0.02 139-0.06-4.32 46-8.03 92-12.3 138-3.66 40.2-7.18 80.4-10.7 121-1.32 13.2-2.1 26.5-3.77 39.7-33.6 9.21-67.1 18.5-101 27.6-3.95 1.22-7.97 2.23-12.1 2.89-0.22-14.5 0.69-29.1-0.49-43.6 0.3-0.06 0.91-0.18 1.21-0.24 31.2-7.84 62.2-16.5 93.4-24.6 3.94-44.2 8.31-88.4 11.1-133-26.5 0.14-53 0.06-79.5 0.17-3.86 0.02-7.72 0-11.6-0.28 14.3-7.34 29.3-13.2 43.9-19.7 14-6.37 28.3-12.3 42.4-18.6 2.72-1.25 5.62-2.29 8.01-4.15 0.94-3.45 0.89-7.06 1.26-10.6 0.81-11.2 2.25-22.3 2.79-33.6-37.5-0.3-75.1-0.04-113-0.24 0.42-13.6 0-27.2 0.24-40.8z"/>
             <path d="m172 290c18.1-0.31 36.2 0.18 54.4 0.06-1.01 18.5-2.55 37-3.51 55.6-11.1 3.63-22.4 6.7-33.6 10.1-5.97 1.82-12.1 3.26-17.8 5.93 0.73-23.9-0.24-47.8 0.5-71.6z"/>
          </g>
          <g id="#cfcfcfff" fill="#cfcfcf">
             <path d="m53.9 161c39.1-0.04 78.2-0.15 117-0.01 0.51 43-0.13 86 0.43 129-15.5 0.34-31.1 0.03-46.6 0.11-19.4 0.03-38.8 0.34-58.1 0.41-1.03-14.5-3.37-28.9-3.64-43.4 2.45-1.78 5.38-2.7 8.12-3.92 32-14 64.2-27.4 96-41.7-36.4-1.09-72.8 0.31-109-1.04-1.82-13.1-3.59-26.2-4.26-39.4z"/>
             <path d="m69.8 316c11.8-0.18 23.5-0.07 35.2-0.14 2.42 0.04 4.9-0.03 7.24 0.69 1.02 11.5 1.82 23 2.97 34.4 8.09 2.35 16.5 3.28 24.7 5.07 10.4 1.85 20.7 4.18 31.2 5.73 1 14.5-0.75 29.1 0.92 43.6-0.3 0.06-0.91 0.18-1.21 0.24-2.19 0.18-4.32-0.6-6.43-1.05-17.7-4.74-35.7-8.75-53.4-13.6-11.6-3.15-23.2-6.11-34.7-9.13-3.37-21.8-5.35-43.8-6.5-65.8z"/>
          </g>
          <g id="#ffffffff">
             <path d="m171 161c37.5 0.2 75.1-0.06 113 0.24-0.54 11.2-1.98 22.4-2.79 33.6-0.37 3.53-0.32 7.14-1.26 10.6-2.39 1.86-5.29 2.9-8.01 4.15-14.1 6.25-28.3 12.2-42.4 18.6-14.6 6.55-29.6 12.4-43.9 19.7 3.84 0.28 7.7 0.3 11.6 0.28 26.5-0.11 53-0.03 79.5-0.17-2.77 44.3-7.14 88.5-11.1 133-31.2 8.12-62.2 16.8-93.4 24.6-1.67-14.5 0.08-29.1-0.92-43.6 5.68-2.67 11.8-4.11 17.8-5.93 11.2-3.36 22.5-6.43 33.6-10.1 0.96-18.5 2.5-37 3.51-55.6-18.1 0.12-36.3-0.37-54.4-0.06-0.56-43 0.08-86-0.43-129z" fill="#ffffff"/>
          </g>
       </g><!--  css icon -->

       <g id="javascript-icon"  transform="translate(578,974) scale(0.133)">
          <path d="m27.1 386-27.1-304h297l-27.1 304-122 33.8-121-33.7z" fill="#d4b830"/>
          <path d="m149 394 98.4-27.3 23.2-259h-122v287z" fill="#fdd83c"/>
          <g id="Group" transform="translate(55,142)">
             <path d="m196 75.5h-52.5v-38.1h55.8l3.3-37.2h-98v113h50.8l-4.48 48.3-46.3 8.43v38.8l81.1-18.5z" fill="#4d4d4d"/>
             <path d="m83.8 0.125h-83.2l3.45 37.3 42.3 3.4e-4v127l-20.7-3.03-2.65-29.7h-37.4l5.22 58.5c92.9 18.5 0.352-0.0135 92.9 18.5z" fill="#000000"/>
          </g>
       </g> <!-- JS icon -->

       <g id="es6-icon"  transform="translate(631,984) scale(0.133)">
         <polygon transform="translate(-1.09e-6 -82.5)" points="270 386 149 420 27.1 386 0 82.5 297 82.5" fill="#ffcc33"/>
         <polygon transform="translate(-1.09e-6 -82.5)" points="149 107 149 394 247 367 270 107" fill="#f8dc3d"/>
         <g transform="translate(-1.09e-6 -82.5)">
           <g fill="#ffffff">
             <polygon points="190 306 149 317 149 355 225 334 226 328 235 230 149 210 149 247 195 257"/>
             <polygon points="225 182 225 143 149 122 149 160"/>
           </g>
           <polygon points="149 160 149 160 149 122 149 122 72.3 143 62.4 220 62.4 220 62.4 220 62.4 220 62.4 220 65.7 257 65.9 257 72.6 334 149 355 149 355 149 317 149 317 107 306 103 257 149 247 149 210 101 220 107 172" fill="#ebebeb"/>
         </g>
       </g> <!-- es6 icon -->

        <g transform="translate(684,984) scale(0.09)"> <!-- github octocat icon -->
          <path d="m409 115c-19.6-33.6-46.2-60.2-79.8-79.8-33.6-19.6-70.3-29.4-110-29.4-39.8 0-76.5 9.8-110 29.4-33.6 19.6-60.2 46.2-79.8 79.8-19.6 33.6-29.4 70.3-29.4 110 0 47.8 13.9 90.7 41.8 129 27.9 38.2 63.9 64.6 108 79.2 5.14 0.954 8.94 0.283 11.4-2 2.48-2.28 3.71-5.14 3.71-8.56 0-0.571-0.049-5.71-0.144-15.4-0.098-9.71-0.144-18.2-0.144-25.4l-6.57 1.14c-4.19 0.767-9.47 1.09-15.8 1-6.37-0.089-13-0.757-19.8-2-6.85-1.23-13.2-4.09-19.1-8.56-5.9-4.47-10.1-10.3-12.6-17.6l-2.86-6.57c-1.9-4.37-4.9-9.23-8.99-14.6-4.09-5.33-8.23-8.94-12.4-10.8l-2-1.43c-1.33-0.951-2.57-2.1-3.71-3.43-1.14-1.33-2-2.66-2.57-4-0.572-1.34-0.098-2.43 1.43-3.29s4.28-1.28 8.28-1.28l5.71 0.853c3.81 0.763 8.52 3.04 14.1 6.85 5.61 3.81 10.2 8.75 13.8 14.8 4.38 7.81 9.66 13.8 15.8 17.8 6.18 4.09 12.4 6.14 18.7 6.14s11.7-0.476 16.3-1.42c4.56-0.952 8.85-2.38 12.8-4.28 1.71-12.8 6.38-22.6 14-29.4-10.8-1.14-20.6-2.86-29.3-5.14-8.66-2.29-17.6-6-26.8-11.1-9.24-5.14-16.9-11.5-23-19.1-6.09-7.61-11.1-17.6-15-30-3.9-12.4-5.85-26.6-5.85-42.8 0-23 7.52-42.6 22.6-58.8-7.04-17.3-6.38-36.7 2-58.2 5.52-1.72 13.7-0.428 24.6 3.85 10.8 4.28 18.8 7.95 23.8 11 5.05 3.04 9.09 5.62 12.1 7.71 17.7-4.95 36-7.42 54.8-7.42s37.1 2.47 54.8 7.42l10.8-6.85c7.42-4.57 16.2-8.76 26.3-12.6 10.1-3.8 17.8-4.85 23.1-3.14 8.56 21.5 9.32 40.9 2.28 58.2 15 16.2 22.6 35.8 22.6 58.8 0 16.2-1.96 30.5-5.85 43-3.9 12.5-8.94 22.5-15.1 30-6.19 7.52-13.9 13.8-23.1 19-9.23 5.14-18.2 8.85-26.8 11.1-8.66 2.29-18.4 4-29.3 5.15 9.89 8.56 14.8 22.1 14.8 40.5v60.2c0 3.42 1.19 6.28 3.57 8.56 2.38 2.28 6.14 2.95 11.3 2 44.2-14.7 80.2-41.1 108-79.2 27.9-38.2 41.8-81.1 41.8-129-0.01-39.8-9.82-76.5-29.4-110z"/>
        </g>
    </g><!-- skills-icons -->
  </g> <!-- diagram-tree -->

<!-- line x1="432" y1="984" x2="770" y2="984" stroke-width="1px" stroke="red" stroke-linecap="butt" />
<line x1="432" y1="968" x2="770" y2="968" stroke-width="1px" stroke="red" stroke-linecap="butt" / -->

  <g id="contact-info-text">
    <text id="text10" text-start="left" x="418pt" y="166pt" style="text-anchor:left; font-weight:500;">
        <tspan>48 Walnut Street</tspan>
        <tspan x="418pt" y="180pt">Montclair, NJ 07043</tspan>
        <tspan x="418pt" y="194pt">973-200-4224</tspan>
        <tspan x="418pt" y="208pt">rsperberg@gmail.com</tspan>
        <tspan x="418pt" y="222pt">super-script.us</tspan>
    </text>
  </g> <!-- contact-info-text -->

  <g id="education-text">
    <text id="text11" text-start="left" x="72pt" y="650pt" style="text-anchor:left; font-weight:500;">Bachelor of Journalism, <tspan class="italic">cum laude</tspan></text>
    <text id="text12" text-start="left"  x="72pt" y="664pt">University of Texas at Austin</text>
    <text id="text13" text-start="left" x="72pt" y="680pt">Bachelor of Science, <tspan class="italic">magna cum laude</tspan></text>
    <text id="text14" text-start="left" x="72pt" y="694pt">Economics</text>
    <text id="text15" text-start="left" x="72pt" y="708pt">University of Texas at Austin</text>
  </g> <!-- education-text -->

    <g id="skills-text">
      <text id="text16" text-start="middle" x="491" y="981" class="skill">HTML5</text>
      <text id="text17" text-start="middle" x="544" y="981" class="skill">CSS</text>
      <text id="text18" text-start="middle" x="597" y="981" class="skill">JavaScript</text>
      <text id="text19" text-start="middle" x="650" y="981" class="skill">ES6</text>
      <text id="text20" text-start="middle" x="703" y="981" class="skill">GitHub</text>
    </g> <!-- skills-text -->
</svg>
