<svg
  xmlns="http://www.w3.org/2000/svg"
  xmlns:svg="http://www.w3.org/2000/svg"
  xmlns:dc="http://purl.org/dc/elements/1.1/"
  xmlns:cc="http://creativecommons.org/ns#"
  xmlns:rdf="http://www.w3.org/1999/02/22-rdf-syntax-ns#"
  title="Roger Sperberg copyeditor resume"
  height="792pt"
  width="612pt"
  version="1.1"
  id="svg21078"
  >
  <defs>
    <style type="text/css">
      @import url('https://fonts.googleapis.com/css?family=Alegreya+Sans:400,400i,500, 500i,700,900');
      text { font-family: "Alegreya Sans"; font-size: 12pt; color: #000000; font-weight:500; }
      #text01 { font-size: 21pt; }
      #text02 { font-size: 15pt; }
      #text03, #text04, tspan { font-size: 12pt; }
      .italic { font-weight: 500i; font-style: italic; }
      .skill { font-weight: 900; font-size: 10pt; letter-spacing:0.1pt; text-anchor:middle; }
    </style>
  </defs>
  <title
     id="title01">Roger Sperberg copyeditor</title>

  <g id="top-group">
    <text id="text01" text-start="middle" x="306pt" y="36pt" style="letter-spacing:0.57pt; text-anchor:middle; font-weight:900;">Roger Sperberg</text>
    <text id="text02" text-start="middle" x="306pt" y="58pt" style="text-anchor:middle; font-weight:500;">Copyeditor / Proofreader</text>
    <text id="text03" text-start="middle" x="306pt" y="73pt" style="text-anchor:middle; font-weight:500;">Experienced print and electronic copyeditor, familiar with production needs and good with deadlines.</text>
    <text id="text04" text-start="middle" x="306pt" y="85pt" style="text-anchor:middle; font-weight:500;">Available for full-time or part-time work, remote or on-site in the metro New York area.</text>
  </g>

  <g id="diagram-tree"> <!-- The tree, icons and labels -->
    <line x1="408" y1="200" x2="408" y2="910" stroke-width="3pt" stroke="#90b2ca" stroke-linecap="butt" />

    <g id="circle1-contact"><!-- grouped white bg, contact icon, circle, line, bar with white text -->
      <circle cx="408" cy="176" r="18pt" stroke-width="0" stroke="#ffffff" fill="#ffffff" opacity="1.0" />
      <g transform="scale(0.38) translate(776 167) ">
           <title>identity card (e.g., contact info) icon</title>
           <path d="m341 328c0.375-0.178 0.845-0.591 1.04-0.919 0.352-0.576 0.364-1.59 0.364-30.6l7.8e-4 -30-0.404-0.514c-0.895-1.14-0.0364-1.09-18.1-1.09h-16.6v3.26c0 3.01-0.0314 3.3-0.401 3.77l-0.401 0.51h-9.34c-9.25 0-9.35-3e-3 -9.71-0.407-0.327-0.361-0.376-0.786-0.43-3.77l-0.0609-3.37h-16.4c-17.9 0-17.1-0.0514-18 1.09l-0.404 0.514 7.4e-4 30c7.9e-4 29.8 3e-3 30 0.391 30.7 0.776 1.27-2.59 1.18 44.7 1.19 39.8 6e-3 43.1-0.0157 43.7-0.316zm-36.6-69.7-0.0559-11.2-0.561-1.22c-1.36-2.95-4.75-4.73-7.79-4.1-2.45 0.506-4.15 1.81-5.24 4.01l-0.731 1.48-0.0574 11.1-0.0571 11.1h14.5l-0.0558-11.2zm-51.1 72.7c-1.69-0.457-3.06-1.65-3.73-3.27-0.262-0.627-0.296-4.25-0.295-31.2l2e-3 -30.4 0.454-0.975c0.587-1.26 2.01-2.52 3.28-2.9 0.832-0.247 3.4-0.289 17.5-0.289h16.5l3e-3 -6.82c3e-3 -7.53 0.12-8.61 1.15-10.7 2.63-5.32 9.48-7.24 14.4-4.06 1.9 1.22 3.36 3.04 4.18 5.24 0.41 1.1 0.431 1.47 0.497 8.74l0.0687 7.6h16.6c14.2 0 16.7 0.0423 17.6 0.289 1.27 0.377 2.7 1.64 3.28 2.9l0.454 0.975 2e-3 30.5 2e-3 30.5-0.497 0.997c-0.574 1.15-1.53 2.06-2.78 2.64l-0.881 0.408-43.5 0.0364c-34.6 0.0283-43.6-0.0126-44.4-0.21z"
              fill="#000000"
              stroke-width="1.07"/>
           <g transform="translate(0 -23.5)">
              <path d="m330 338v-2.27h-66.8v4.54h66.8zm-68.7 4.8c-0.226-0.0912-0.491-0.377-0.59-0.636-0.0982-0.259-0.179-2.21-0.179-4.34 0-3.64 0.0235-3.89 0.376-4.34l0.376-0.478h70.6l0.455 0.455 0.455 0.455-0.0547 4.17c-0.0488 3.71-0.09 4.2-0.379 4.49-0.308 0.308-2.01 0.325-35.5 0.358-20.9 0.0206-35.3-0.0326-35.6-0.131z"
              fill="#d40000"/>
           </g>
           <path d="m284 298c0.0824-3.48-0.419-4.86-2.13-5.87l-0.829-0.488-6.99-0.055c-7.74-0.0609-8.05-0.0265-9.27 1.02-1.25 1.07-1.43 1.68-1.43 4.89l-3e-3 2.77 10.3-0.0468 10.3-0.0468 0.0515-2.17zm-22.8 4.85c-0.455-0.304-0.522-1.05-0.435-4.86l0.0906-4 0.596-1.21c0.692-1.4 1.83-2.5 3.3-3.21l0.998-0.474 7.52-0.0529c7.14-0.0503 7.58-0.0344 8.71 0.317 2.13 0.662 3.84 2.37 4.47 4.46 0.39 1.3 0.374 8.19-0.0206 8.75l-0.282 0.403-12.4-3e-3c-6.81-1e-3 -12.5-0.0626-12.6-0.136z"
              fill="#0000ff"/>
           <path d="m296 302c-0.602-0.221-0.907-0.667-0.907-1.32 0-1.37-1.47-1.28 18.7-1.23l18 0.0462 0.356 0.477c0.269 0.36 0.325 0.621 0.228 1.06-0.25 1.14 0.464 1.1-18.7 1.08-9.56-9e-3 -17.5-0.0594-17.7-0.114z"
              fill="#999999"/>
           <path d="m295 293c-0.476-0.334-0.557-1.43-0.146-2 0.251-0.344 0.676-0.353 18-0.4 12.4-0.0338 17.9 0.0118 18.2 0.148 0.457 0.189 0.885 0.835 0.885 1.34 0 0.131-0.169 0.454-0.376 0.717l-0.376 0.478h-17.9c-15.9 0-18-0.0315-18.3-0.282z"
              fill="#808080"/>
           <path d="m275 284c2.66-1.19 3.72-4.28 2.33-6.83-0.991-1.82-2.84-2.83-4.91-2.67-2.63 0.199-4.63 2.35-4.65 5.03-0.0265 3.04 2.48 5.3 5.51 4.97 0.449-0.05 1.22-0.274 1.72-0.498zm-4.35 3.1c-2.61-0.868-4.64-2.87-5.44-5.36-0.496-1.53-0.325-3.77 0.409-5.34 0.742-1.59 2.11-2.96 3.75-3.76 1.11-0.546 1.46-0.626 2.99-0.687 1.43-0.0565 1.95 1e-3 2.9 0.325 2.84 0.961 4.82 3.28 5.33 6.26 0.55 3.21-1.36 6.64-4.52 8.12-1.04 0.484-1.45 0.573-2.95 0.626-1.13 0.0394-2-0.0235-2.47-0.18z" fill="#0000ff"/>
           <path d="m295 284c-0.431-0.476-0.387-1.53 0.0815-1.95 0.369-0.334 0.965-0.347 17.9-0.395 11.1-0.0309 17.7 0.0176 18 0.128 0.986 0.375 1.28 1.55 0.562 2.27-0.255 0.255-2.17 0.285-18.3 0.285-17.2 0-18-0.0147-18.3-0.332z"
              fill="#808080"/>
           <path d="m298 253c0.672-0.494 0.932-1.1 0.845-1.99-0.184-1.86-2.46-2.59-3.76-1.2-0.586 0.623-0.629 2.19-0.0774 2.8 0.818 0.916 2.05 1.07 2.99 0.383zm-2.31 3.05c-0.964-0.193-1.36-0.407-2.26-1.22-1.15-1.04-1.51-1.88-1.51-3.58 0-1.74 0.366-2.57 1.62-3.67 1.8-1.58 4.57-1.58 6.37 0 1.25 1.1 1.62 1.93 1.62 3.67 0 1.7-0.353 2.54-1.52 3.59-1.21 1.09-2.75 1.52-4.32 1.21z"
              fill="#808080"/>
      </g> <!-- identity card -->
      <line x1="432" y1="176" x2="528" y2="176" stroke-width="3pt" stroke="#90b2ca" stroke-linecap="butt" />
      <line x1="528" y1="176" x2="720" y2="176" stroke-width="36pt" stroke="#90b2ca" stroke-linecap="butt" />
      <text id="text05" text-start="middle" x="624" y="182" style="fill: #ffffff; stroke: none; font-size: 21px; letter-spacing:0.3pt; text-anchor:middle; font-weight:700; ">Contact Info</text>
      <circle cx="408" cy="176" r="18pt" stroke-width="3pt" stroke="#90b2ca" fill-opacity="0.0" />
    </g> <!-- circle1-contact -->


    <g id="circle2-positions"><!-- grouped white bg, icon, circle, line, bar with white text -->
      <circle cx="408" cy="324" r="18pt" stroke-width="0" stroke="#ffffff" fill="#ffffff" opacity="1.0" />
      <g>
           <title>Companies (office buildings) icon</title>
           <g transform="translate(391,305) scale(0.032)">
               <path d="m0 1.1e3 87.7-1.56 0.336-350 0.336-350h64v-97.3h293v-304h333v97.3h203l0.335 502 0.335 502 144 1.56c-0.444 47.1-0.444-19.9-0.444 47.1h-591l-535 1.22c0.297-70.3 0 0-0.34-48.3zm446-326v-325h-309v651h309zm-259 206v-24.7h208v49.3h-208zm0-139v-24.7h208v49.3h-208zm0-139v-24.7h208v49.3h-208zm0-135v-24.7h208v49.3h-208zm412 434v-97.3h216v195l59-0.347 59-0.347v-955h-439l-0.341 476c-0.188 262-0.0565 477 0.291 478 0.491 1.29 12.3 1.67 52.7 1.67h52zm-52-378v-24.7h333v49.3h-333zm0-161v-24.7h333v49.3h-333zm0-161v-24.7h333v49.3h-333zm219 725v-73.3h-117v147h117zm-329-651v-24h-236v48h236zm293-305v-24.7l-118 0.341-118 0.341-0.367 22.6c-0.202 12.4-0.0707 23.4 0.291 24.3 0.53 1.38 23.6 1.72 118 1.72h117z" fill="#000000" stroke-width="1.33"/>
          </g>
      </g> <!-- Work icon -->
      <line x1="292" y1="324" x2="384" y2="324" stroke-width="3pt" stroke="#90b2ca" stroke-linecap="butt" />
      <line x1="96" y1="324" x2="292" y2="324" stroke-width="36pt" stroke="#90b2ca" stroke-linecap="butt" />
      <text id="text09" text-start="middle" x="198" y="330" style="fill: #ffffff; stroke: none; font-size: 21px; letter-spacing:0.3pt; text-anchor:middle; font-weight:700; ">Positions</text>
      <circle cx="408" cy="324" r="18pt" stroke-width="3pt" stroke="#90b2ca" fill-opacity="0.0" />
    </g> <!-- circle2-positions -->


    <g id="circle3-freelance"><!-- grouped white bg, icon, circle, line, bar with white text -->
      <circle cx="408" cy="414" r="18pt" stroke-width="0" stroke="#ffffff" fill="#ffffff" opacity="1.0" />
      <g>
           <title>freelance (remote location) icon</title>
           <g transform="translate(391,355) scale(0.078)">
               <path d="m421 881c1.82-1.24 4.25-3.52 5.4-5.07 2.05-2.77 2.09-3.69 2.09-50.6v-47.8l-2.73-3.58c-4.52-5.93-8.6-6.87-28.3-6.54l-17 0.282-0.26 56.5c-0.143 31.1-0.0444 57.1 0.219 57.8 0.359 0.937 5.08 1.25 18.9 1.25 17.4 0 18.6-0.118 21.7-2.25zm-292-36-0.255-106h-19.5-19.5l-0.293 85c-0.207 60 0.0388 86.8 0.835 91 3.54 18.8 20.4 36.2 35.2 36.4l3.75 0.0521-0.255-106zm-46.9 143c-6.98-2.87-10.4-5.25-15.8-11.2-5.36-5.81-9.7-15.1-11.1-23.5-1.24-7.76-1.45-249-0.225-251 0.633-0.997 33.8-1.2 163-1l162 0.253 0.5 21.5 0.5 21.5 20.5 0.559c18.4 0.501 21.1 0.804 26.5 2.91 8.28 3.24 18.2 13.2 21.6 21.5 2.39 5.98 2.4 6.15 2.71 51.7 0.199 29-0.0695 47.8-0.734 51.4-2.38 12.9-10.2 23.4-21.6 29-5.91 2.9-6.19 2.93-25.5 3.2-10.7 0.148-20.5 0.485-21.7 0.75-2.15 0.476-2.18 0.757-2.53 25.7-0.325 23.2-0.533 25.7-2.54 30.7-5.15 12.8-14.4 22.2-25.6 26.1-5.44 1.91-8.93 1.96-135 1.94l-129-0.0237-5.61-2.31z" fill="#000000"/>
               <g fill="#ff6600">
                  <path d="m213 670c-5.7-2.34-7.45-3.79-10.1-8.37-3.18-5.42-3.68-14-1.12-18.9 4.94-9.43 16.2-13.8 25.5-9.95 19 7.96 14.7 36.4-5.82 38-3.07 0.243-6.75-0.107-8.45-0.802z"/>
                  <path d="m157 612c-4.72-3.02-7.7-9.83-6.84-15.6 1.61-10.8 22.7-26.1 45.2-33 7.95-2.43 10.4-2.69 25.3-2.75 14.3-0.0589 17.5 0.232 24.4 2.21 15.2 4.39 30 12.5 40 22.1 7.68 7.31 9.53 14.1 5.79 21.1-2.87 5.41-7.42 7.98-14.1 7.98-6.14 0-7.58-0.715-15.4-7.68-5.69-5.06-16.7-10.7-25.1-12.8-9.48-2.41-23.9-2-33.2 0.95-8.61 2.72-17.9 7.89-23.3 12.9-5.96 5.6-8.06 6.59-14 6.57-3.84-0.0117-6.5-0.642-8.72-2.06z"/>
                  <path d="m333 569c-1.73-0.752-6.83-4.77-11.3-8.92-19.8-18.2-44.8-30.7-72.6-36.3-13.5-2.72-44.4-2.46-57.7 0.468-26.7 5.87-52 18.6-70.3 35.4-3.84 3.52-8.09 7.17-9.45 8.1-2.68 1.83-10.4 2.27-14.2 0.808-3.64-1.39-7.71-6.04-8.97-10.3-1.92-6.41 0.138-11.2 7.99-18.7 24.1-23 56-39.4 90.3-46.3 9.85-1.98 14.4-2.3 33.9-2.31 19.6-0.012 24 0.284 34 2.31 28 5.68 52.3 16.4 75.1 33.3 11.6 8.58 22.6 19.4 24 23.6 2.32 7.03-1.08 15.5-7.38 18.4-4.92 2.23-8.99 2.39-13.3 0.499z"/>
               </g>
          </g>
      </g> <!-- freelance work icon -->
      <line x1="432" y1="414" x2="528" y2="414" stroke-width="3pt" stroke="#90b2ca" stroke-linecap="butt" />
      <line x1="528" y1="414" x2="720" y2="414" stroke-width="36pt" stroke="#90b2ca" stroke-linecap="butt" />
      <text id="text09" text-start="middle" x="624" y="420" style="fill: #ffffff; stroke: none; font-size: 21px; letter-spacing:0.3pt; text-anchor:middle; font-weight:700; ">Freelance Work</text>
      <circle cx="408" cy="414" r="18pt" stroke-width="3pt" stroke="#90b2ca" fill-opacity="0.0" />
    </g> <!-- circle3-freelance -->


    <g id="circle4-education"><!-- grouped white bg, icon, circle, line, bar with white text -->
      <circle cx="408" cy="814" r="18pt" stroke-width="0" stroke="#ffffff" fill="#ffffff" opacity="1.0" />
      <g>
           <title>education icon</title>
           <g transform="translate(388,800) scale(0.078)">
             <path d="m123 360c-3.54-1.54-7.55-5.99-9.38-10.4-1.13-2.72-0.157-11.7 7.92-73.4 7.82-59.7 10.1-75.7 9.99-70.2-0.0102 0.504 4.1 32.3 9.13 70.7 9.07 69.2 9.14 69.8 7.4 73.7-2.07 4.59-5.91 8.49-9.83 9.97-3.83 1.45-11.5 1.27-15.2-0.343z" fill="#ffcc00"/>
             <g fill="#000000">
                <path d="m229 335c-19.7-2.47-47.6-10.2-61.5-17.2l-6.5-3.22-6.32-50.8c-3.48-28-6.07-51.1-5.77-51.4 0.304-0.305 21.3 9.45 46.7 21.7 52 25.1 55 26.1 66.7 23.7 5.17-1.08 23.6-9.5 76.8-35.1 38.5-18.5 71.2-34.4 72.7-35.1l2.79-1.43-0.287 35.3-0.287 35.3-3.38 6.65c-6.04 11.9-20.2 25.9-38.4 38-25.9 17.2-60.4 29.6-93.7 33.7-10 1.21-39.5 1.15-49.5-0.106z"/>
                <path d="m102 269c-6.76-10.5-6.78-10.7-6.78-48.8v-34.4l10.2 5.12c5.64 2.82 10.4 5.25 10.6 5.39 0.497 0.445-9.24 78.5-9.79 78.5-0.28-5e-3 -2.18-2.6-4.22-5.78z"/>
                <path d="m249 243c-2.48-0.451-5.62-1.27-7-1.82-6.95-2.78-97.7-46.5-98.8-47.6-0.708-0.703-1-2.02-0.656-2.92 0.347-0.904 22.9-13.2 50.1-27.3l49.5-25.6 7.2 1.03c9.24 1.32 17.5 0.141 24.6-3.51 10.6-5.4 13.3-14.7 6.58-22.2-5.74-6.36-12.1-8.57-24.5-8.57-12.1 0-18.3 2.06-24.1 8.06-2.78 2.87-3.46 4.45-3.88 9.01l-0.508 5.53-50.5 26.2c-40.5 21.1-50.7 26.7-51.5 28.8-0.921 2.23-1.36 2.42-3.55 1.53-12.3-5.02-117-55.6-119-57.5-3.34-3.09-3.51-6.13-0.5-8.89 2.99-2.75 3.52-3.01 131-63.9l111-52.9h11.5 11.5l119 57c65.7 31.4 121 58.1 122 59.3 3.52 2.96 3.53 6.08 0.0296 9.35-2.39 2.23-224 108-238 114-6.38 2.59-15.6 3.61-22 2.44z"/>
             </g>
          </g>
      </g> <!-- education icon -->
      <line x1="292" y1="814" x2="384" y2="814" stroke-width="3pt" stroke="#90b2ca" stroke-linecap="butt" />
      <line x1="96" y1="814" x2="292" y2="814" stroke-width="36pt" stroke="#90b2ca" stroke-linecap="butt" />
      <text id="text09" text-start="middle" x="198" y="820" style="fill: #ffffff; stroke: none; font-size: 21px; letter-spacing:0.3pt; text-anchor:middle; font-weight:700; ">Education</text>
      <circle cx="408" cy="814" r="18pt" stroke-width="3pt" stroke="#90b2ca" fill-opacity="0.0" />
    </g> <!-- circle4-education -->


    <g id="circle5-skills"><!-- grouped white bg, icon, circle, line, bar with white text -->
      <circle cx="408" cy="934" r="18pt" stroke-width="0" stroke="#ffffff" fill="#ffffff" opacity="1.0" />
      <g transform="matrix(.204 0 0 .204 -.116 4.52e-5) scale(0.38) translate(5040 11780)">
           <title>skills (strengths) icon</title>
           <path d="m287 453c-80.4-6.8-172-36.9-246-80.6l-21.8-13c3.25-7.6 5.13-15.5 6.96-23.3 0.544-2.32 1.1-4.63 1.67-6.92 1.69-6.62 3.56-17.4 5.73-29.9 3.12-18 7-40.3 10.5-49.3l47.9-123c1.05-2.68 2-5.57 2.98-8.52 2.59-7.89 5.28-16.1 10.3-20.5 2.83-2.5 6.52-4.35 10.1-5.99 0.416-0.184 0.808-0.408 1.17-0.664l94.8-72.6c4.75-3.66 11.3-3.61 16 0.16l47.6 38c3.01 2.41 4.78 6 4.86 9.86s-1.53 7.52-4.43 10.1l-30.3 26.5c-5.15 4.5-12.9 4.22-17.8-0.584-2.77-2.77-4.13-6.58-3.74-10.5 0.392-3.89 2.48-7.37 5.74-9.54l2.69-1.8-8.89-13.3-2.68 1.79c-7.26 4.83-11.9 12.6-12.8 21.3s2.18 17.2 8.35 23.4c10.8 10.8 28.2 11.3 39.6 1.32l25.5-22.3 7.85 11.8-47.9 41.1-57.3-7.16c0.872-4.1 1.87-8.17 3.04-12.2l-15.4-4.46c-5.37 18.5-7.85 37.6-7.41 56.8 0.24 10.3 1.34 20.6 2.42 30.6 1.25 11.7 2.43 22.7 2.36 33.9-0.216 33.5-13.2 64.8-34.7 83.7l10.5 12c15.2-13.4 26.5-31.4 33.2-52 2.42-0.808 5.49-0.752 8.5-0.496 10.5 0.936 20.7 3.82 30.3 8.13-3.9 6.27-7.09 13-9.46 20l15.2 5.1c2.06-6.15 4.9-12 8.38-17.4 0.192 0.128 0.4 0.224 0.584 0.352l7.67-11.2c15.1-16.9 37.3-28.6 63.1-32.5 38.7-5.8 74.6 7.46 94 34.5l13-9.31c-8.03-11.2-18.4-20.4-30.5-27.4 23.2-19.3 56.7-26.2 85.3-16.3l5.25-15.1c-36.1-12.6-78.8-2.4-106 24-19-7.26-40.8-9.61-63.3-6.23-29.9 4.46-55.7 18.3-73.2 38.3-12.1-5.93-25.3-9.66-38.7-10.9-1.77-0.16-3.66-0.232-5.6-0.216 1.66-8.7 2.6-17.7 2.66-27 0.08-12.1-1.21-24.1-2.46-35.8-1.03-9.62-2.1-19.6-2.32-29.2-0.192-8.03 0.256-16 1.18-24l61.3 7.66c0.352 0.024 0.688 0.048 1.02 0.048 1.9 0 3.75-0.68 5.2-1.93l56-48c3.08-2.63 3.7-7.14 1.46-10.5l-14-21.1c2.39-4.38 3.77-9.29 3.66-14.4-0.184-8.61-4.16-16.6-10.9-22l-47.5-38c-10.5-8.37-25.2-8.5-35.8-0.336l-90.6 69.7-2.96 2.02c-4.28 1.99-9.14 4.54-13.3 8.22-8.29 7.29-11.8 18-14.9 27.5-0.872 2.66-1.74 5.28-2.68 7.71l-47.9 123c-4.09 10.5-7.79 31.8-11.4 52.4-2.02 11.6-3.93 22.6-5.46 28.7-0.608 2.38-1.18 4.78-1.74 7.18-2.24 9.49-4.36 18.4-8.78 26.1-2.19 3.79-0.928 8.65 2.83 10.9l28.2 16.7c75.5 44.9 170 75.8 253 82.8 6.41 0.544 14.5 0.864 23.7 0.864 46 0 120-8.05 155-37.1l-10.2-12.3c-36.4 30-127 36-168 32.6z"/>

      </g> <!-- strength icon -->
      <line x1="432" y1="934" x2="528" y2="934" stroke-width="3pt" stroke="#90b2ca" stroke-linecap="butt" />
      <line x1="528" y1="934" x2="720" y2="934" stroke-width="36pt" stroke="#90b2ca" stroke-linecap="butt" />
      <text id="text09" text-start="middle" x="624" y="940" style="fill: #ffffff; stroke: none; font-size: 21px; letter-spacing:0.3pt; text-anchor:middle; font-weight:700; ">Skills</text>
      <circle cx="408" cy="934" r="18pt" stroke-width="3pt" stroke="#90b2ca" fill-opacity="0.0" />
    </g> <!-- circle5-skills -->


    <!-- +++++++++++++++++++++++++ ++++++++++++++++++++++++++++ ++++++++++ -->
    <g id="freelance-work-logos">

      <g id="time-magazine-logo" transform="translate(436,504) scale(0.33)">
        <path d="m142 0.951s-3.33 0.0697-5.26 0.0371c-0.08 0.81-1.01 8.15-1.81 14.1-0.92 5.46-8.21 46-10.7 58.1-0.65 3.66-2.66 14-2.85 15-2.32 0.277-5.06 0.533-6.85 0.602-0.24 8e-3 -0.64 0.086-0.83 0.086v2.1c0.22-9e-3 1.38 0.08 2.2 0.045 1.97-0.063 7.56-0.328 8.62-0.328 4.02 0 6.7 0.266 10.4 0.34 0.05 0 1.07-4e-3 1.52-0.061v-2.12c-0.31 0-0.72-0.01-0.96-0.01-1.05 0.033-4.92-0.264-6.88-0.531 0.23-1.39 3.65-22.4 5.29-30.8 3.12-15.5 5.28-26.5 5.28-26.5l0.58 1.37 24.6 58.8 4.5 0.023s2.57-6.36 5.62-13.5c0.08-0.169 0.3-0.68 0.61-1.41 3.2-7.41 19.1-45 19.1-45s0.15 0.677 0.4 1.89c1.51 7.37 6.62 33.9 7.71 40.3 0.51 3.3 0.99 6.64 1.27 8.6 0.41 2.77 0.68 5.49 0.68 6.27-0.5 0.023-5.52 0.477-7.42 0.559-0.27-9e-3 -0.78 0.016-0.81 0.021v2.14c0.68 0 1.34 0.03 2 0.015 3.88-0.074 7.61-0.378 11.5-0.376 4.36 4e-3 11.4 0.385 16 0.414 0.51 0 1.42-0.045 1.42-0.045v-2.16c-0.26-2e-3 -1.4-0.058-1.82-0.091-2.03-0.159-5.45-0.476-6.32-0.534 0 0-0.56-3.1-1.3-6.69-2.96-14.3-11.4-57.9-12.7-68.6-0.44-3.69-1.69-12-1.69-12l-5.07-0.00158s-2.59 7.43-4.95 14.2c-1.61 4.63-3.8 10.3-5.47 14.7-8.24 21.7-17.5 41.8-17.5 41.8s-19.6-46.9-20.7-49.6c-1.05-2.71-7.47-21.2-7.47-21.2zm-141 0.0195l0.043 4.95-0.084 12.1 1.31-0.037 0.137-10.7c0-3e-4 7.17-0.062 8.09-0.0608l13.4 0.0058 8.62 0.043 0.014 74.6 2e-3 6.44-0.182 0.025c-1.15 0.089-5.56 0.359-7.36 0.424-0.402 0.013-0.659 0.023-0.703 0.018l8e-3 2.18c0.324 0.016 1.2 0.037 1.31 0.033 4.24-0.055 9.99-0.424 14.1-0.42 4.14 2e-3 9.96 0.404 13.6 0.446 0.357 2e-3 0.78-0.033 1.12-0.033v-2.05l-0.447 4e-3c-1.15-5e-3 -7.5-0.414-8.15-0.5-0.027-1-0.145-5.83-0.145-5.94l0.031-75.3 6.56-0.0174 17.1 0.0117 5.72 0.0781c0.038 0.408 0.327 5.84 0.322 5.99-0.013 0.395 0.214 4.44 0.205 5.44l1.36 0.016-0.097-12.2 0.062-5.49c-5.03 0.137-17.9 0.309-37.8 0.299-17.1-0.0105-33.5-0.154-38.1-0.359zm79.7 0.0195l0.021 2.14c0.676 0.0367 4.65 0.388 5.62 0.436 0.771 0.0944 1.85 0.191 2.62 0.266 0 0.684 0.012 5.4 0.023 7.27 0.129 17.7 0.019 56.7-0.033 70.5-0.016 3.99-0.027 6.57-0.027 6.57-0.487 0.146-1.58 0.201-2.77 0.281-1.01 0.069-4.64 0.374-5.45 0.391v2.14c0.336 0 0.952 0.071 1.3 0.068 4.11 1e-3 9.82-0.509 14-0.506 4.25 3e-3 9.93 0.521 13.3 0.522l-0.01 2e-3c0.29 4e-3 0.98-0.072 1.27-0.071v-2.14h-0.29c-0.13-0.028-4.45-0.21-5.5-0.319-0.55-0.035-2.93-0.241-2.96-0.32-0.01-0.042-0.02-0.681-0.02-1.75 0.01-1.01 0.01-2.69 0.01-4.51 0.01-13.9 0.05-55.3 0.06-71.1 0-3.06 0.01-5.54 0.01-6.87 0.93-0.0588 4.73-0.456 6.09-0.576 0.06-0.0059 1.86-0.11 2.6-0.154v-2.23c-4.65-0.0017-10.8 0.362-15.3 0.359-4.75-0.0029-10.6-0.375-14.5-0.377zm215 0.0606s-0.49 0.0021-1.4 0.0039c-3.11 0.0134-11.1 0.0718-20.4 0.123-5.72 0.0332-10.2 0.0791-16.1 0.0762-4.13 0.0484-9.91 0.208-13.5 0.201-5.7-0.0093-10.4-0.361-12.9-0.371-1.2-0.0053-1.87 0.0399-2.2 0.0195 0.02 0.0303 0.02 2.11 0.02 2.11 0.22 0.0384 0.66 0.0874 1.07 0.0781 1.43 0.0962 4.11 0.313 5.47 0.492 0.27 0.0495 0.73 0.125 2.01 0.268-0.01 0.473 0.06 5.83 0.05 9.04 0 2.98-0.03 69.5-0.03 69.5 0 0.108-0.15 5.35-0.15 5.77-2.26 0.387-6.6 0.625-8.08 0.631h-0.44v2.12c0.21-1e-3 1.18 0.037 1.73 0.037 2.39-1e-3 8.55-0.381 14.8-0.385 4.41-4e-3 9.26 0.161 14.2 0.231 6.05 0.084 12.2 0.088 17.7 0.166 9.07 0.128 16.4 0.139 18.8 0.142 0 0 0.29-16.8 0.29-18.2l-1.31 0.015c0 1.43-0.53 6.76-0.55 6.99-0.17 2.01-0.35 4.11-0.49 5.14 0 0-0.64 0.051-0.95 0.045-1.49-0.028-6.25 0.145-6.35 0.145l-21.2 9e-3 -14.9-0.25-0.1-4.14-0.01-32.1c2.66-0.09 6.72-0.231 9.19-0.226 2.1 4e-3 7.05-0.114 9.82-0.108 6.73 0.012 12.7 0.055 13.2 0.069 1.11 0.032 3.17 0.1 3.95 0.148 0.03 0.283 0.12 0.725 0.13 0.85 0.4 2.46 0.62 4.16 0.89 6.58 0.04 0.217 0.06 0.427 0.09 0.625h1.53s0.04-0.863 0.02-1.4c-0.03-1.89-0.15-5.67-0.15-9.85-0.01-2.9 0.16-7.34 0.18-9.47 0.01-0.577-0.06-0.987-0.06-1.15l-1.4 0.027c-0.01 0.461-0.12 1.14-0.12 1.14-0.12 1.59-0.57 3.62-0.93 5.77-0.1 0.267-0.17 0.64-0.17 0.64-0.16 0.054-4.55 0.288-4.94 0.285-0.15-1e-3 -6.54 0.178-6.65 0.178l-24.6-0.092 0.04-35.4c0 1e-4 3.12-0.11 3.99-0.105 3.54 6e-4 9.3-0.0316 15.2-0.0234 8.59 0.0104 16.9 0.0639 17 0.0761 0.05 0.0245 2.59 0.0598 2.64 0.104 0.06 0.0478 3.24 0.143 4.02 0.168 0 0 0.06 0.264 0.1 0.596 0.35 3.73 0.64 8.17 0.77 9.74l0.01 0.629 1.31-4e-3c0-2.3-0.12-9.34-0.14-13.8-0.01-1.44 0.02-2.61 0.02-3.28v-0.57z" fill="#e90606"/>
      </g> <!--  time-magazine-logo -->
      <g id="glynlyon-logo" transform="translate(576,502) scale(0.1)">
          <g transform="scale(.746)">
             <path d="m0 250v-250h250 250v250 250h-250-250v-250z" fill="#fafafa"/>
             <path d="m230 499c-62.6-6.29-115-30.4-157-72.8-39.6-39.6-62.2-85.3-71.6-145-1.67-10.6-1.67-52.4 0-63 9.44-59.8 32-105 71.6-145 39.6-39.6 85.3-62.2 145-71.6 10.6-1.67 52.4-1.67 63 0 59.8 9.44 105 32 145 71.6 39.6 39.6 62.2 85.3 71.6 145 1.67 10.6 1.67 52.4 0 63-9.44 59.8-32 105-71.6 145-38.9 38.9-85.2 62.1-142 71.1-8.75 1.39-45.8 2.6-54.1 1.77z" fill="#f5d505"/>
             <path d="m230 499c-62.6-6.29-115-30.4-157-72.8-39.6-39.6-62.2-85.3-71.6-145-1.67-10.6-1.67-52.4 0-63 9.44-59.8 32-105 71.6-145 39.6-39.6 85.3-62.2 145-71.6 10.6-1.67 52.4-1.67 63 0 59.8 9.44 105 32 145 71.6 39.6 39.6 62.2 85.3 71.6 145 1.67 10.6 1.67 52.4 0 63-9.44 59.8-32 105-71.6 145-38.9 38.9-85.2 62.1-142 71.1-8.75 1.39-45.8 2.6-54.1 1.77zm48-43.5c4.4-0.615 8.51-1.52 9.12-2.01 0.71-0.563 1.31-7.03 1.63-17.6 0.423-13.9 0.966-18.4 3.17-26.6 4.77-17.8 11.4-31.4 20.5-42.4 2.67-3.2 4.55-6.24 4.19-6.75-1.89-2.66-42.3-36.4-43.6-36.4-1.83 0-9.95 16.5-14.5 29.5-4.21 12-8.62 30.3-10.7 44.4-1.81 12.2-2.56 54.7-1.03 58.5 0.72 1.76 1.58 1.85 12 1.24 6.17-0.361 14.8-1.16 19.2-1.78zm-50.1-3.12c0.272-1.79 0.757-8.88 1.08-15.8 1.56-33.4 8.1-75.6 18.2-117l4.54-18.8-4.47-8.73c-4.74-9.27-8.1-18.3-9.83-26.3-0.578-2.7-1.44-5.14-1.92-5.43-1.27-0.787-12.9 9.59-25.7 22.9-30.5 31.8-51.4 68.8-59.2 105-2.59 11.9-4.45 33.7-3.36 39.1 0.783 3.91 1.04 4.12 12.2 9.62 18.8 9.29 50.4 18.6 63.8 18.8 3.99 0.0622 4.23-0.0981 4.7-3.18zm100-10.4c13.3-5.39 25-11.6 36.6-19.4 11.8-7.91 24.1-18 23.7-19.3-0.199-0.597-5.06-2.7-10.8-4.68-13.9-4.79-23.8-10.2-30.7-16.6-3.14-2.95-5.96-5.35-6.26-5.35-0.306 0-2.6 1.3-5.11 2.89-14.7 9.31-24.6 28.6-28.4 55.5-2.12 14.7-2.04 15 4.8 13 2.91-0.856 10.2-3.57 16.3-6.02zm-203-39.6c1.21-21 7.33-41.6 19.8-66.8 16.4-33.2 37.5-61.5 71.1-95.6l17.8-18.1 1.49-19.8c1.71-22.7 2.79-18.6-9.28-35.2-4.09-5.64-7.81-10.2-8.27-10.2-1.58 0-23.5 7.73-32.5 11.4-12.9 5.34-30.5 14.3-41.5 21.1-16.5 10.2-29.1 20.4-45.6 36.9-16.4 16.4-24.2 25.6-42.3 49.8l-10.3 13.7 2.7 10.8c8.72 34.9 26.2 66.6 50.9 92.1 10.7 11.1 22.1 21.2 24 21.2 0.978 0 1.49-2.92 1.97-11.2zm221-66.5c-0.0102-0.412-2.92-5.66-6.48-11.7-8.71-14.7-12.7-24.5-13.3-32.7-0.457-6.28-0.333-6.74 2.71-10.2 1.75-2 5.75-4.89 8.87-6.42 4.88-2.4 6.9-2.79 14.3-2.79 7.82 0 8.95 0.256 12.7 2.86 9.37 6.49 10.7 17.7 3.78 32.3-4.95 10.5-4.69 14.7 1.29 20.6 3.65 3.65 4.59 4.06 10.1 4.46l6.12 0.442 7.29-7.62c10-10.5 12.3-10.4 6.09 0.24-1.92 3.28-3.5 6.41-3.5 6.95 0 2.44 7.84 2.45 15.8 8e-3 2.7-0.826 3.66-0.697 5.2 0.696 1.79 1.62 2.13 1.6 6.31-0.427 2.43-1.18 5.19-3 6.14-4.05 2.31-2.55 4.44-8.73 4.5-13 0.04-2.79 0.639-3.84 2.94-5.14 1.83-1.04 3.15-2.8 3.58-4.79 1.27-5.78 0.321-6.06-20-6.06h-18.3l-3.83 4.17c-8.08 8.8-8.29 8.96-11.1 8.64-4.33-0.5-3.79-3.16 1.73-8.59 8.15-8.02 20.4-13.6 35.4-16.2 10.4-1.79 11.3-2.43 13.6-9.28 1.13-3.35 2.03-6.8 1.99-7.65-0.0384-0.856-2.85-3.58-6.24-6.06-4.89-3.57-6.85-5.85-9.47-11-2.04-4.01-3.38-8.22-3.51-11-0.242-5.19-0.244-5.19 8.79-1.91 4.31 1.56 8.4 2.2 14.5 2.24 11.2 0.0837 13-0.907 13-7.17 0-12.4-15.7-30.5-44.4-51.3-5.98-4.33-11.8-7.87-13-7.86-3.12 0.0221-15.2 9.31-18.9 14.5-1.74 2.46-3.48 4.48-3.88 4.48-0.397 0-2.42-3.04-4.49-6.75s-6.16-9.09-9.09-12-5.32-5.45-5.32-5.75c0-1.53 20-0.391 27.8 1.58 4.58 1.17 8.57 1.88 8.86 1.59 0.296-0.296 0.0504-1.45-0.545-2.56-1.52-2.85-12-7.7-22.6-10.5l-9-2.36-0.305-4.66c-0.168-2.56-0.0121-4.66 0.346-4.66s1.84 0.844 3.3 1.88c3.35 2.37 22.8 12.1 24.1 12.1 1.9 0 1.03-3.25-3.36-12.5-5.82-12.3-11-19.8-18.9-27.1-11.6-10.9-23.9-16-40.4-17.1-9.44-0.588-26.8 1.14-28.9 2.88-0.853 0.691 0.128 3.67 3.66 11.1 8.04 17 9.88 31.5 5.51 43.7l-1.61 4.5 2.93 2.63c3.92 3.52 10.8 5.58 21.4 6.39 4.81 0.365 8.75 1.04 8.75 1.49 0 1.86-10.7 4.41-18.5 4.41-11.5 6e-3 -28.9-5.94-39.7-13.5-1.46-1.03-3.22-1.87-3.91-1.87-1.74 0-19.6 13.6-20.8 15.8-0.533 0.997-1.91 16-3.05 33.3s-2.34 33.7-2.65 36.5l-0.572 5 7.67 8.25c4.22 4.54 8.25 8.25 8.96 8.25 0.98 0 1.41-4.11 1.8-17.2 0.708-23.8 3.12-30.8 13-37.4 7.66-5.14 15.1-7.48 24.1-7.52 7.52-0.037 8.27 0.177 17.5 4.98 18 9.36 27.3 10.4 39.8 4.21 3.56-1.75 6.69-2.96 6.96-2.69s-0.856 3.17-2.51 6.45c-2.63 5.21-3.63 6.22-8.06 8.13-5.65 2.43-16 4.04-26.6 4.11-13.5 0.0929-27.1 4.29-33.3 10.3-5.52 5.34-11.2 23-11.2 34.8 0 2.55 0.708 7.08 1.57 10.1 1.35 4.65 2.83 6.67 10.3 14 9.56 9.39 24.6 20 36.2 25.4 7.48 3.51 9.97 4.21 9.93 2.82zm-293-82.9c10.9-13.8 34.7-38.2 48.9-50.3 30.6-25.9 69.4-49.6 103-62.4 4.93-1.91 9.49-4.29 10.1-5.3 1.52-2.42 9.78-45.8 9.07-47.7-0.478-1.24-1.58-1.24-8.37 0.0077-40.1 7.38-78.7 25.2-108 50.1-23.1 19.4-41.5 42.9-56.1 71.5-6.65 13.1-7.02 14.2-7.93 23.5-1.59 16.4-1.16 31.3 0.903 31.3 0.369 0 4.48-4.81 9.13-10.7zm210-90.5c3.99-2.69 7.25-5.36 7.25-5.95 0-0.587-2.93-4.11-6.52-7.82l-6.52-6.75 0.271-20.8 0.271-20.8 2.5-0.663c1.38-0.365 4.88-0.977 7.78-1.36l5.28-0.697 1.5 3.59c1.67 3.99 2.4 4.01 9.77 0.288 3.38-1.7 3.76-2.26 3.18-4.57-1.72-6.86-3.32-9.11-7.2-10.1-7.73-2.04-22-3.34-29.5-2.71-9.05 0.755-10.5 1.21-11.2 3.45-1.91 6.17-10.5 54.5-9.85 55.5 1.12 1.83 14.2 20.6 17 24.4 2.38 3.25 2.39 3.25 5.59 1.6 1.76-0.906 6.46-3.84 10.4-6.53zm-194-5.32c46.3-55.3 121-90 183-84.7 7.37 0.639 14.4 1.44 15.6 1.79 4.13 1.15 2.48-2.06-4.5-8.76-12.3-11.8-29.8-21.8-38.1-21.8-6.94 0-28.2 4.66-41.5 9.11-45.6 15.2-85.1 46.8-111 88.7-8.36 13.5-14.3 25.9-11.9 25 0.523-0.203 4.34-4.42 8.49-9.37zm281-60.5c4.32-5.01 13.1-10.1 20-11.5 1.79-0.376 3.25-1.26 3.25-1.95 0-1.22-13.2-10.6-19.7-13.9-2.45-1.26-3.41-1.35-4.64-0.388-2.14 1.67-17.8 25.9-17.4 27 0.222 0.666 9.16 4.29 13.7 5.57 0.275 0.0769 2.42-2.09 4.77-4.82zm-35.2-1.59c2.74-0.423 3.26-1.09 4.87-6.21 2.02-6.44 5.16-13 10.2-21.4 1.86-3.1 3.39-6.3 3.39-7.12 0-1.77-14-7.34-28-11.1-17.5-4.74-50-9.09-50-6.68 0 0.569 2.36 2.23 5.25 3.69 12.4 6.25 23.5 15.9 29.7 25.9 2.55 4.08 5.06 10.8 8.55 23.1 0.294 1.03 9.01 0.967 16.1-0.121z" fill="#58595a"/>
        </g>
        <path d="m495 279c-30.9-3.82-57.4-23-70.4-51-5.47-11.8-8.12-23.1-8.75-37.3-2.08-46.7 23.6-83 66.6-94.2 11.9-3.09 33.5-4.19 46.1-2.34 11.1 1.62 22.8 5.34 31.6 10.1 7.57 4.04 18.3 11.7 18.3 13 0 1.7-14 21.9-15.9 22.9-3.72 1.99-8.32 1.14-15.7-2.91-3.99-2.19-10.8-5.19-15.1-6.67-6.88-2.36-9.36-2.69-20.3-2.68-10.3 9e-3 -13.5 0.392-18.4 2.17-8.86 3.23-13.7 6.41-19.9 13.1-10.1 10.9-14.7 24.6-14.7 43.5 0 19 5.21 34.2 15.5 45.3 6.1 6.59 15.6 12.1 24.5 14.2 10.7 2.56 30 0.901 38.9-3.35 2.59-1.24 2.6-1.3 2.88-14.9l0.278-13.6-11.6-0.369c-15.5-0.493-15.4-0.37-15.4-18v-12.9h32 32l-0.01 38.8-0.01 38.8-5.93 3.82c-18.7 12-49.6 17.9-76.5 14.6zm864 0.161c-41-5.23-71.5-32.6-79.3-71-4.72-23.1-2.34-44.2 7.29-64.5 11.7-24.7 30.3-39.7 59.1-47.8 6.3-1.76 10.4-2.11 25.5-2.15 21.5-0.0628 29 1.53 45 9.49 20.9 10.4 34.9 25.9 43.1 47.9 9.08 24.2 8.06 53.9-2.65 76.8-14.9 31.8-43.7 50.1-81.3 51.7-5.63 0.235-13.2 0.0528-16.8-0.405zm32.2-37.3c22-8.1 32.8-28.2 31.6-59.3-0.725-19.8-5.67-32.5-16.7-42.8-9.21-8.62-19.4-12.1-35.1-12.1-16.1 0.0781-28.1 4.99-37.1 15.2-4.65 5.29-10.1 16.2-12.1 24.2-2.02 8.17-1.78 31.8 0.394 39.8 5.3 19.3 17.7 32.2 35.4 36.7 8.85 2.24 25 1.42 33.5-1.71zm-789-55.3v-91.5h20.5 20.5v74.5 74.5h30.5c32.9 0 35.5 0.368 36.8 5.21 0.337 1.26 0.62 8.25 0.627 15.5l0.014 13.2h-54.5-54.5v-91.5zm139 56.3v-35.2l-31.4-54.1c-17.2-29.7-31.9-55.1-32.5-56.3l-1.18-2.25h21 21l3.49 3.25c2.63 2.45 7.68 12 20.5 38.6 9.37 19.5 17.7 37 18.5 38.9 0.811 1.94 1.63 3.35 1.82 3.12 0.191-0.222 8.35-17.3 18.1-37.9s18.7-38.7 19.7-40.3c3.7-5.29 5.87-5.73 27.8-5.73 15.7 0 20 0.275 19.7 1.25-0.268 0.688-14.9 26.2-32.6 56.6l-32.1 55.3v34.9 34.9h-21-21v-35.2zm117-56.3v-91.5h14.5 14.5l3.29 2.89c1.81 1.59 22.6 27.7 46.3 57.9 23.6 30.3 43.2 55.1 43.5 55.1 0.275 0.0317 0.377-26 0.226-57.9l-0.274-58h18 18v91.6 91.6l-13.8-0.346c-11.7-0.293-14.2-0.651-16.9-2.35-1.73-1.1-19.9-23.4-40.4-49.5-44.9-57.2-50.2-64-50.3-64-0.055 0 0.062 26.1 0.262 58l0.362 58h-18.6-18.6v-91.5zm186 0v-91.5h21 21v74.5 74.5h30.5c32.9 0 35.5 0.368 36.8 5.21 0.337 1.26 0.62 8.25 0.627 15.5l0.014 13.2h-55-55v-91.5zm140 56.6v-34.9l-32.1-55.3c-17.7-30.4-32.3-55.9-32.6-56.6-0.404-1.05 3.45-1.31 19.7-1.31 22 0 24.2 0.45 27.8 5.73 2.28 3.29 37.2 75.8 37.2 77.3 0 2.63 1.87 0.433 4-4.72 5.22-12.6 34.2-71.8 36.1-73.9 3.79-4.03 6.44-4.44 27.2-4.15l19.8 0.272-32.5 56-32.5 56-0.013 35.2-0.013 35.2h-21-21v-34.9zm300-56.6v-91.5h14c10.3 0 14.8 0.385 16.9 1.45 1.65 0.855 20.4 23.9 45.6 56.1 23.6 30.1 43.5 55.5 44.4 56.6 1.41 1.74 1.53-3.49 1.24-56.1l-0.316-58.1h18.6 18.6v91.6 91.6l-13.8-0.346c-11.6-0.291-14.3-0.665-17.2-2.36-2.22-1.31-17.5-20-43.8-53.5-22.2-28.3-42-53.5-44.1-55.9l-3.7-4.37 0.295 58.1 0.296 58.1h-18.5-18.5v-91.5z" fill="#58585a"/>
      </g> <!-- glynlyon-logo -->

      <g id="cengage-logo" transform="translate(462,532) scale(0.12)">
           <path d="m313 205c-5.72-28.7-10.6-52.8-10.8-53.5-0.35-0.981 5.51-1.25 27.2-1.25 30.8 0 32.5 0.32 35.1 6.4 1.36 3.25 16.9 80.6 16.3 81.1-0.282 0.245-56.7 19.5-57.2 19.5-0.101 0-4.86-23.5-10.6-52.2z" fill="#b0dbee"/>
           <path d="m377 332c-10.7-9.5-19.5-17.7-19.5-18.3s15.3-14.4 34-30.8 35.1-30.8 36.5-32.1l2.5-2.29 12.2 21.3c15.9 27.6 15.8 26.2 2.5 38.3-18.9 17.1-46.4 40.8-47.6 41-0.649 0.111-9.96-7.57-20.7-17.1z" fill="#7ec4e3"/>
           <path d="m345 430c-16.3-5.58-29.9-10.4-30.2-10.7-0.473-0.473 7.64-43.8 8.93-47.6 0.28-0.841 13.5 3.22 42.4 13 23.1 7.82 42 14.5 42 14.9 0.0194 1.53-21.3 37.5-23.2 39.1-3.63 3.09-9.29 1.87-40-8.63z" fill="#48abd6"/>
           <path d="m231 448c-1.77-0.961-3.05-2.77-3.69-5.21-1.64-6.29-11.1-54.9-11.1-57 0-1.74 2.92-2.99 21-9.03 20.5-6.84 21-6.96 21.5-4.84 0.572 2.4 15.5 76.9 15.5 77.4 0 0.158-9.11 0.27-20.2 0.248-15.9-0.0314-20.8-0.358-23-1.51z" fill="#1588c5"/>
           <path d="m1.18e3 541c-12.5-2.29-20.8-7.35-24.5-15-1.83-3.77-2.17-5.9-1.86-11.5 0.468-8.28 3.42-13.4 10.9-18.7l4.98-3.58-2.42-2.88c-2.9-3.44-3.99-7.75-3.09-12.2 0.731-3.6 7.18-13.8 8.73-13.8 0.542 0-1.45-2.63-4.42-5.84-8.4-9.07-11-21.3-7.3-33.9 1.91-6.44 8.99-14.5 15.9-18 6.84-3.52 20.7-4.36 29-1.76l5.5 1.73 4.32-3.1c2.56-1.83 6.57-3.52 9.82-4.14 6.3-1.19 11.4-0.473 10.6 1.5-0.275 0.716-1.04 3.11-1.7 5.32-1.14 3.81-1.38 3.99-4.46 3.49-2.88-0.468-10.5 1.18-10.5 2.27 0 0.228 1.53 2.42 3.41 4.88 4.71 6.17 6.08 10.7 6.02 20.1-0.065 10.5-2.74 16.8-10.1 23.4-7.12 6.51-13.1 8.54-24.9 8.39-4.95-0.0643-9.88-0.276-10.9-0.471-1.43-0.26-2.59 0.794-4.37 3.98-5.34 9.55-0.068 13.8 21.3 17.1 18.3 2.88 25.2 5.12 30.8 10.1 10.3 9.08 8.59 26-3.53 34.7-11 7.92-29.7 11-47.3 7.78zm25-10.6c14.3-2.48 21.8-11.7 17-21-2.75-5.32-9.97-7.81-33.3-11.5l-10.4-1.63-3.63 2.92c-8.04 6.47-10.5 14.9-6.23 21.8 5.02 8.23 20.4 12.1 36.6 9.33zm-1.73-75.5c7.8-3.26 11.6-9.57 11.6-19.5 0.104-15.9-13.6-25.7-28.5-20.5-8.65 3.05-12.9 9.64-12.9 20 0 9.61 4.09 16.8 11.5 20.1 4.07 1.83 13.7 1.76 18.2-0.115zm-548 40.5c-7.99-2.53-17.1-10.7-21.4-19.1-10.5-20.8-6.8-51.5 7.8-64.9 6.9-6.36 13.8-9.08 23.2-9.12 10.3-0.0448 16.7 2.14 23 7.85 8.36 7.52 13.9 22.4 14 37.6l0.0349 4.75h-60.3l0.684 5.25c0.872 6.69 4.77 15.3 8.88 19.6 1.76 1.84 5.45 4.52 8.2 5.96 4.27 2.24 6.24 2.62 13.5 2.59 7.92-0.0236 11.5-0.851 21-4.8 1.12-0.465 2.14 0.604 3.75 3.91 1.22 2.5 2.21 4.79 2.21 5.08 0 0.835-8.99 4.59-14.5 6.06-7.54 2.01-22.8 1.64-30.2-0.727zm31.5-58.9c-0.629-6.55-5.38-15.8-10-19.4-2.83-2.24-5.09-3.07-9.28-3.42-13.3-1.1-22.1 7.4-25 24l-0.66 3.75h45.5zm54.7 59.4c-5.87-2.08-10.9-6.67-13.9-12.6-2.15-4.32-2.59-6.58-2.59-13.4 0-10.5 3.05-17 10.4-22.1 7.19-4.95 14.1-6.58 30.6-7.25l14.5-0.588-0.144-6.6c-0.225-10.3-4.56-16.6-13-18.9-7.95-2.22-17-0.563-31 5.66-1.02 0.455-7.01-8.32-6.22-9.11 0.186-0.186 2.63-1.49 5.42-2.89 7.91-3.97 16-5.73 26.4-5.77 15.8-0.0565 24.9 4.95 30.1 16.7 2.41 5.38 2.18 0.922 3.14 60.8l0.267 16.8h-11.3l-1.29-4.75c-0.709-2.61-1.42-4.92-1.58-5.12-0.162-0.203-2.58 1.31-5.37 3.36-7.54 5.53-13.6 7.53-22.8 7.43-4.26-0.0434-9.56-0.724-11.8-1.51zm26.9-12.8c2.82-1.38 6.82-4.06 8.88-5.95l3.75-3.43v-23.5l-12.9 0.651c-17.7 0.895-23.8 3.33-27.8 11.1-2.08 3.99-1.33 13.7 1.33 17.4 1.1 1.51 3.99 3.78 6.44 5.06 5.56 2.91 12.8 2.48 20.3-1.21zm-216-50.6v-64h14l0.258 57.8 0.258 57.8 23.8 0.268 23.8 0.268v12h-62zm277 18v-46h11.9l0.633 3.75c1.31 7.78 1.15 7.72 6.78 2.62 6.91-6.24 12.5-8.63 20.1-8.59 3.34 0.0167 7.04 0.41 8.22 0.875l2.15 0.845-2.52 6.28c-2.22 5.53-2.77 6.2-4.65 5.6-7.12-2.27-14.8 0.408-23.4 8.13l-5.2 4.67v67.8h-14zm71-0.0499v-46l5.73 0.3 5.73 0.3 0.831 4.98c0.457 2.74 0.997 5.14 1.2 5.35s2.48-1.24 5.07-3.22c6.48-4.95 14-8.34 21-9.46 6.23-0.996 14.6-0.139 18.6 1.9 4.56 2.34 9.87 8.47 12.1 13.9 2.13 5.3 2.24 7.09 2.56 41.8l0.34 36.2h-14l-0.31-34.3-0.31-34.3-2.5-4.85c-3.44-6.67-7.57-8.87-15.6-8.28-6.69 0.485-13.6 3.47-21.6 9.34l-4.81 3.53v68.8h-14zm108 0.0499v-46h13v92h-13zm48 0v-46h11.9l0.687 5.5c0.378 3.02 0.856 5.5 1.06 5.5s3.26-1.98 6.79-4.39c13.5-9.25 27.2-11.5 37.9-6.24 6.61 3.23 10.3 7.84 12.8 15.8 1.66 5.34 1.86 9.67 1.86 40.9v34.9h-13.9l-0.298-34.8c-0.282-32.9-0.41-35-2.37-38.7-3.36-6.4-6.42-8.06-14.8-8.02-7.96 0.0456-12.7 1.98-22.4 9.11l-5.23 3.85-0.015 34.2-0.015 34.2h-14v-46zm-48.5-70.5c-2.83-2.83-3.21-7.19-0.992-11.5 1.71-3.31 3.31-4.07 8.53-4.07 3.05 0 4.36 0.627 6.42 3.08 1.46 1.73 2.59 4.32 2.59 5.92s-1.13 4.19-2.59 5.92c-2.18 2.59-3.3 3.08-7.05 3.08-3.4 0-5.04-0.583-6.91-2.45zm-843-33.9c-9-15.8-9.87-17.9-8.68-21 0.505-1.32 41.4-37.6 42.8-38 0.723-0.201 30.4 25.6 30.5 26.5 0.0604 0.605-54.5 48.9-55.2 48.8-0.153-0.0167-4.44-7.34-9.53-16.3zm420-32.2c-22-4.82-37-18.5-44.1-40.2-2.71-8.26-2.88-9.79-2.83-24.8 0.0477-14.6 0.286-16.7 2.72-24 7.2-21.5 23.8-37.5 44.8-43.2 12.6-3.4 37.5-1.7 47 3.21 2.82 1.46 2.96 1.83 2.96 8.07 0 6.32-0.0752 6.52-2.25 5.85-1.24-0.382-3.47-1.31-4.95-2.07-4.93-2.51-15.2-4.34-24.4-4.36-29.3-0.0477-49.3 20.1-51.2 51.5-2.63 44.1 32.2 70.2 72.7 54.5 4.11-1.59 7.75-2.57 8.1-2.17 1.26 1.47 3.95 9.38 3.46 10.2-0.936 1.51-13.1 5.87-20.8 7.46-9.11 1.88-22.9 1.93-31.2 0.103zm414 0.455c-14.7-3.11-25-8.81-34.7-19.2-11.1-11.9-16.4-26.7-16.3-46.1 0.0207-13.2 1.78-22.3 6.18-31.9 14.6-31.7 49.6-44.8 89.5-33.4l7.81 2.22 0.295 7.29 0.295 7.29-4.13-2.1c-11.5-5.89-33.5-8-47-4.51-23.7 6.17-37.9 26.3-38 53.8-0.06 27 13.2 46.4 36.5 53.3 10.4 3.08 29.1 2.09 39-2.06l3.41-1.42v-39.1l-15.8-8.9e-4 -15.8-9e-4 -2.18-6-2.18-6h50.9l-0.265 29.7-0.265 29.7-5.86 2.32c-11.4 4.53-20.6 6.33-34.1 6.73-7.15 0.207-15-0.0453-17.4-0.56zm273 0c-23.7-5.01-40.1-19.1-47.8-41.1-3.12-8.98-4.28-28.4-2.37-39.4 7.3-42 47.9-63.5 94.6-50.2l8 2.28 0.293 7.21 0.293 7.21-5.67-2.51c-8.81-3.9-17.8-5.6-29.4-5.57-16.9 0.054-27.8 3.99-38.1 13.8-10.2 9.73-15.9 24.6-15.9 41.3 0.056 27.7 13 46.8 36.5 53.7 7.87 2.32 23.6 2.3 32.5-0.0459 10.9-2.89 10-0.879 10-23.1v-19.5h-31.6l-2.16-6-2.16-6h50.9l-0.265 29.7-0.265 29.7-5.86 2.32c-11.4 4.53-20.6 6.33-34.1 6.73-7.15 0.207-15-0.0453-17.4-0.56zm-588-67.5v-66.5h63.8l-2.23 5.75-2.23 5.75-22.4 0.5-22.4 0.5-0.268 23.2-0.268 23.2h44v12h-44v50h51v12h-65zm115 0v-66.5h13.7l31.5 41.2c35.6 46.6 42 55.3 46.3 62 1.65 2.61 3.22 4.75 3.5 4.75 0.275 1e-3 0.373-24.3 0.217-54l-0.283-54h15.1v133h-12.7l-36.5-47.8c-20-26.3-38.7-50.9-41.4-54.7l-4.95-6.98-0.259 54.7-0.259 54.7h-14zm286 64.2c0.337-1.24 11.5-31 24.9-66.2l24.3-64 5.12-0.298c4.17-0.243 5.25 0.0354 5.82 1.5 4.42 11.3 48.9 128 49.3 130 0.455 1.63-0.204 1.77-7.29 1.5l-7.79-0.294-6.18-16.6c-3.4-9.13-6.5-17.1-6.89-17.8-0.504-0.815-8.32-1.15-27-1.15-24.2 0-26.4 0.145-27 1.75-0.38 0.962-3.09 8.28-6.02 16.2s-5.64 15.3-6.02 16.2c-0.572 1.45-1.98 1.75-8.19 1.75-7.29 0-7.48-0.0621-6.89-2.25zm72.5-57c-2.24-6.19-7-19.6-10.6-29.8s-6.83-18.8-7.22-19.3c-0.557-0.612-22.1 57.6-22.1 59.7 0 0.323 9.89 0.587 22 0.587h22zm216-7.25v-66.5h32c17.6 0 32 0.185 32 0.411 0 0.226-0.962 2.93-2.14 6l-2.14 5.59h-44.7v47h44v12h-44v50h50v12h-65zm-1.14e3 -0.626c-16.2-5.52-29.9-10.4-30.3-10.8-0.754-0.728 12.9-25.5 16.1-29.3 0.823-0.962 2.74-1.75 4.27-1.75 2.86 0 46.7 14.6 48.3 16.1 1.45 1.34-5.66 35.4-7.43 35.6-0.805 0.115-14.7-4.3-31-9.82z" fill="#125d93"/>
           <path d="m1.18e3 541c-12.5-2.29-20.8-7.35-24.5-15-1.83-3.77-2.17-5.9-1.86-11.5 0.468-8.28 3.42-13.4 10.9-18.7l4.98-3.58-2.42-2.88c-2.9-3.44-3.99-7.75-3.09-12.2 0.731-3.6 7.18-13.8 8.73-13.8 0.542 0-1.45-2.63-4.42-5.84-8.4-9.07-11-21.3-7.3-33.9 1.91-6.44 8.99-14.5 15.9-18 6.84-3.52 20.7-4.36 29-1.76l5.5 1.73 4.32-3.1c2.56-1.83 6.57-3.52 9.82-4.14 6.3-1.19 11.4-0.473 10.6 1.5-0.275 0.716-1.04 3.11-1.7 5.32-1.14 3.81-1.38 3.99-4.46 3.49-2.88-0.468-10.5 1.18-10.5 2.27 0 0.228 1.53 2.42 3.41 4.88 4.71 6.17 6.08 10.7 6.02 20.1-0.065 10.5-2.74 16.8-10.1 23.4-7.12 6.51-13.1 8.54-24.9 8.39-4.95-0.0643-9.88-0.276-10.9-0.471-1.43-0.26-2.59 0.794-4.37 3.98-5.34 9.55-0.068 13.8 21.3 17.1 18.3 2.88 25.2 5.12 30.8 10.1 10.3 9.08 8.59 26-3.53 34.7-11 7.92-29.7 11-47.3 7.78zm25-10.6c14.3-2.48 21.8-11.7 17-21-2.75-5.32-9.97-7.81-33.3-11.5l-10.4-1.63-3.63 2.92c-8.04 6.47-10.5 14.9-6.23 21.8 5.02 8.23 20.4 12.1 36.6 9.33zm-1.73-75.5c7.8-3.26 11.6-9.57 11.6-19.5 0.104-15.9-13.6-25.7-28.5-20.5-8.65 3.05-12.9 9.64-12.9 20 0 9.61 4.09 16.8 11.5 20.1 4.07 1.83 13.7 1.76 18.2-0.115zm-548 40.5c-7.99-2.53-17.1-10.7-21.4-19.1-10.5-20.8-6.8-51.5 7.8-64.9 6.9-6.36 13.8-9.08 23.2-9.12 10.3-0.0448 16.7 2.14 23 7.85 8.36 7.52 13.9 22.4 14 37.6l0.0349 4.75h-60.3l0.684 5.25c0.872 6.69 4.77 15.3 8.88 19.6 1.76 1.84 5.45 4.52 8.2 5.96 4.27 2.24 6.24 2.62 13.5 2.59 7.92-0.0236 11.5-0.851 21-4.8 1.12-0.465 2.14 0.604 3.75 3.91 1.22 2.5 2.21 4.79 2.21 5.08 0 0.835-8.99 4.59-14.5 6.06-7.54 2.01-22.8 1.64-30.2-0.727zm31.5-58.9c-0.629-6.55-5.38-15.8-10-19.4-2.83-2.24-5.09-3.07-9.28-3.42-13.3-1.1-22.1 7.4-25 24l-0.66 3.75h45.5zm54.7 59.4c-5.87-2.08-10.9-6.67-13.9-12.6-2.15-4.32-2.59-6.58-2.59-13.4 0-10.5 3.05-17 10.4-22.1 7.19-4.95 14.1-6.58 30.6-7.25l14.5-0.588-0.144-6.6c-0.225-10.3-4.56-16.6-13-18.9-7.95-2.22-17-0.563-31 5.66-1.02 0.455-7.01-8.32-6.22-9.11 0.186-0.186 2.63-1.49 5.42-2.89 7.91-3.97 16-5.73 26.4-5.77 15.8-0.0565 24.9 4.95 30.1 16.7 2.41 5.38 2.18 0.922 3.14 60.8l0.267 16.8h-11.3l-1.29-4.75c-0.709-2.61-1.42-4.92-1.58-5.12-0.162-0.203-2.58 1.31-5.37 3.36-7.54 5.53-13.6 7.53-22.8 7.43-4.26-0.0434-9.56-0.724-11.8-1.51zm26.9-12.8c2.82-1.38 6.82-4.06 8.88-5.95l3.75-3.43v-23.5l-12.9 0.651c-17.7 0.895-23.8 3.33-27.8 11.1-2.08 3.99-1.33 13.7 1.33 17.4 1.1 1.51 3.99 3.78 6.44 5.06 5.56 2.91 12.8 2.48 20.3-1.21zm-216-50.6v-64h14l0.258 57.8 0.258 57.8 23.8 0.268 23.8 0.268v12h-62zm277 18v-46h11.9l0.633 3.75c1.31 7.78 1.15 7.72 6.78 2.62 6.91-6.24 12.5-8.63 20.1-8.59 3.34 0.0167 7.04 0.41 8.22 0.875l2.15 0.845-2.52 6.28c-2.22 5.53-2.77 6.2-4.65 5.6-7.12-2.27-14.8 0.408-23.4 8.13l-5.2 4.67v67.8h-14zm71-0.0499v-46l5.73 0.3 5.73 0.3 0.831 4.98c0.457 2.74 0.997 5.14 1.2 5.35s2.48-1.24 5.07-3.22c6.48-4.95 14-8.34 21-9.46 6.23-0.996 14.6-0.139 18.6 1.9 4.56 2.34 9.87 8.47 12.1 13.9 2.13 5.3 2.24 7.09 2.56 41.8l0.34 36.2h-14l-0.31-34.3-0.31-34.3-2.5-4.85c-3.44-6.67-7.57-8.87-15.6-8.28-6.69 0.485-13.6 3.47-21.6 9.34l-4.81 3.53v68.8h-14zm108 0.0499v-46h13v92h-13zm48 0v-46h11.9l0.687 5.5c0.378 3.02 0.856 5.5 1.06 5.5s3.26-1.98 6.79-4.39c13.5-9.25 27.2-11.5 37.9-6.24 6.61 3.23 10.3 7.84 12.8 15.8 1.66 5.34 1.86 9.67 1.86 40.9v34.9h-13.9l-0.298-34.8c-0.282-32.9-0.41-35-2.37-38.7-3.36-6.4-6.42-8.06-14.8-8.02-7.96 0.0456-12.7 1.98-22.4 9.11l-5.23 3.85-0.015 34.2-0.015 34.2h-14v-46zm-48.5-70.5c-2.83-2.83-3.21-7.19-0.992-11.5 1.71-3.31 3.31-4.07 8.53-4.07 3.05 0 4.36 0.627 6.42 3.08 1.46 1.73 2.59 4.32 2.59 5.92s-1.13 4.19-2.59 5.92c-2.18 2.59-3.3 3.08-7.05 3.08-3.4 0-5.04-0.583-6.91-2.45zm-423-66c-22-4.82-37-18.5-44.1-40.2-2.71-8.26-2.88-9.79-2.83-24.8 0.0477-14.6 0.286-16.7 2.72-24 7.2-21.5 23.8-37.5 44.8-43.2 12.6-3.4 37.5-1.7 47 3.21 2.82 1.46 2.96 1.83 2.96 8.07 0 6.32-0.0752 6.52-2.25 5.85-1.24-0.382-3.47-1.31-4.95-2.07-4.93-2.51-15.2-4.34-24.4-4.36-29.3-0.0477-49.3 20.1-51.2 51.5-2.63 44.1 32.2 70.2 72.7 54.5 4.11-1.59 7.75-2.57 8.1-2.17 1.26 1.47 3.95 9.38 3.46 10.2-0.936 1.51-13.1 5.87-20.8 7.46-9.11 1.88-22.9 1.93-31.2 0.103zm414 0.455c-14.7-3.11-25-8.81-34.7-19.2-11.1-11.9-16.4-26.7-16.3-46.1 0.0207-13.2 1.78-22.3 6.18-31.9 14.6-31.7 49.6-44.8 89.5-33.4l7.81 2.22 0.295 7.29 0.295 7.29-4.13-2.1c-11.5-5.89-33.5-8-47-4.51-23.7 6.17-37.9 26.3-38 53.8-0.06 27 13.2 46.4 36.5 53.3 10.4 3.08 29.1 2.09 39-2.06l3.41-1.42v-39.1l-15.8-8.9e-4 -15.8-9e-4 -2.18-6-2.18-6h50.9l-0.265 29.7-0.265 29.7-5.86 2.32c-11.4 4.53-20.6 6.33-34.1 6.73-7.15 0.207-15-0.0453-17.4-0.56zm273 0c-23.7-5.01-40.1-19.1-47.8-41.1-3.12-8.98-4.28-28.4-2.37-39.4 7.3-42 47.9-63.5 94.6-50.2l8 2.28 0.293 7.21 0.293 7.21-5.67-2.51c-8.81-3.9-17.8-5.6-29.4-5.57-16.9 0.054-27.8 3.99-38.1 13.8-10.2 9.73-15.9 24.6-15.9 41.3 0.056 27.7 13 46.8 36.5 53.7 7.87 2.32 23.6 2.3 32.5-0.0459 10.9-2.89 10-0.879 10-23.1v-19.5h-31.6l-2.16-6-2.16-6h50.9l-0.265 29.7-0.265 29.7-5.86 2.32c-11.4 4.53-20.6 6.33-34.1 6.73-7.15 0.207-15-0.0453-17.4-0.56zm-588-67.5v-66.5h63.8l-2.23 5.75-2.23 5.75-22.4 0.5-22.4 0.5-0.268 23.2-0.268 23.2h44v12h-44v50h51v12h-65zm115 0v-66.5h13.7l31.5 41.2c35.6 46.6 42 55.3 46.3 62 1.65 2.61 3.22 4.75 3.5 4.75 0.275 1e-3 0.373-24.3 0.217-54l-0.283-54h15.1v133h-12.7l-36.5-47.8c-20-26.3-38.7-50.9-41.4-54.7l-4.95-6.98-0.259 54.7-0.259 54.7h-14zm286 64.2c0.337-1.24 11.5-31 24.9-66.2l24.3-64 5.12-0.298c4.17-0.243 5.25 0.0354 5.82 1.5 4.42 11.3 48.9 128 49.3 130 0.455 1.63-0.204 1.77-7.29 1.5l-7.79-0.294-6.18-16.6c-3.4-9.13-6.5-17.1-6.89-17.8-0.504-0.815-8.32-1.15-27-1.15-24.2 0-26.4 0.145-27 1.75-0.38 0.962-3.09 8.28-6.02 16.2s-5.64 15.3-6.02 16.2c-0.572 1.45-1.98 1.75-8.19 1.75-7.29 0-7.48-0.0621-6.89-2.25zm72.5-57c-2.24-6.19-7-19.6-10.6-29.8s-6.83-18.8-7.22-19.3c-0.557-0.612-22.1 57.6-22.1 59.7 0 0.323 9.89 0.587 22 0.587h22zm216-7.25v-66.5h32c17.6 0 32 0.185 32 0.411 0 0.226-0.962 2.93-2.14 6l-2.14 5.59h-44.7v47h44v12h-44v50h50v12h-65zm-1.14e3 -0.626c-16.2-5.52-29.9-10.4-30.3-10.8-0.754-0.728 12.9-25.5 16.1-29.3 0.823-0.962 2.74-1.75 4.27-1.75 2.86 0 46.7 14.6 48.3 16.1 1.45 1.34-5.66 35.4-7.43 35.6-0.805 0.115-14.7-4.3-31-9.82z" fill="#083657"/>
      </g> <!-- cengage logo -->

      <g id="andrews-mcmeel-universal-logo" transform="translate(422,606) scale(0.13)">
         <path d="m857 373v-45h15v90h-15zm-641 16.5v-28.5h15v3c0 3.11 1.31 3.95 2.7 1.71 2.34-3.77 6.63-5.71 12.6-5.71h6l-0.631 5.25c-0.347 2.89-0.635 5.95-0.639 6.81-7e-3 1.29-1.05 1.49-5.97 1.13-5.54-0.4-6.17-0.222-8.91 2.51-4.24 4.24-5.12 8.82-5.13 26.5l-6e-3 15.8h-15zm-130 0v-28.5h7.5c7.33 0 7.5 0.0556 7.5 2.5 0 2.86 1.16 3.21 3.05 0.934 2.43-2.93 6.83-4.43 13-4.43 8.16 0 12.3 2.09 15.7 7.88 2.71 4.61 2.72 4.68 3.03 27.4l0.318 22.8h-15.1v-19c0-22.2-0.685-25-6.41-26.9-3.07-1.01-4.16-0.917-7.35 0.64-5.43 2.65-6.12 5.67-6.19 27.1l-0.0564 18.2h-15zm-40.7-20c-3.1-9.08-5.98-16.5-6.39-16.5s-1.45 2.36-2.31 5.25-3.1 10.3-4.97 16.5l-3.41 11.2h22.7zm-45.3 47.8c0-0.41 7.54-20.7 16.8-45.1l16.8-44.3 6.37 0.272 6.37 0.272 15.9 43c8.74 23.6 16.1 43.8 16.4 44.8 0.505 1.57-0.292 1.75-7.86 1.75h-8.42l-3.42-9.25-3.42-9.25h-31.8l-3.63 9-3.63 9-8.19 0.29c-4.5 0.16-8.19-0.0449-8.19-0.455zm680-0.586c-0.46-1.24-4.79-13.7-9.62-27.8s-8.94-25.7-9.14-25.9c-0.941-1.1-1.6 2.34-4.87 25.5-1.94 13.7-3.75 25.9-4.02 27.2-0.466 2.1-1.02 2.25-8.5 2.25-7.78 0-7.99-0.0608-7.48-2.25 0.286-1.24 3.44-20.2 7.02-42.2 3.57-22 6.76-41.3 7.09-42.8 0.571-2.71 0.774-2.79 6.18-2.5l5.59 0.297 10.6 28.4c5.82 15.6 11 28.4 11.5 28.5 0.517 0.0806 5.53-12.7 11.1-28.4l10.2-28.5h11.7l6.25 42.5c3.43 23.4 6.27 43.5 6.29 44.8 0.0472 2.15-0.313 2.25-7.76 2.25h-7.81l-3.44-27c-1.89-14.9-3.86-27-4.37-27.1-0.514-0.0167-4.67 10.5-9.25 23.3-12.3 34.4-11.1 31.8-13.9 31.8-1.62 0-2.72-0.759-3.28-2.25zm-148 0c-0.467-1.24-4.8-13.7-9.63-27.8s-8.93-25.7-9.13-25.9c-0.93-1.11-1.6 2.38-4.87 25.5-1.94 13.7-3.75 25.9-4.02 27.2-0.466 2.1-1.02 2.25-8.5 2.25-7.78 0-7.99-0.0614-7.49-2.25 0.282-1.24 3.45-20.5 7.04-42.8 3.59-22.3 6.76-41.5 7.04-42.8 0.471-2.11 0.972-2.27 6.08-2l5.57 0.299 10.6 28.4c5.86 15.6 11 28.4 11.5 28.5 0.49 0.0808 5.5-12.7 11.1-28.4l10.2-28.5h11.6l6.27 43c3.45 23.6 6.29 43.8 6.3 44.8 0.0234 1.52-1 1.75-7.79 1.75h-7.82l-3.46-27.2c-1.9-15-3.83-27.2-4.29-27.2-0.459 0-4.15 9.22-8.21 20.5s-8.55 23.8-9.99 27.8c-2.27 6.29-2.94 7.25-5.04 7.25-1.59 0-2.71-0.769-3.27-2.25zm-208-26c-6.99-15.6-12.7-28.6-12.7-29 3e-3 -0.412 3.56-0.75 7.9-0.75h7.9l5.85 16.5c3.22 9.07 6.29 16.3 6.83 16.2 0.535-0.17 4.04-7.96 7.79-17.3l6.81-17 3.45 0.0735 3.45 0.0735 7.11 17.7c3.91 9.76 7.45 17.5 7.87 17.3 0.416-0.257 3.4-7.9 6.63-17l5.87-16.5h16.5l-3.3 7.25c-1.82 3.99-7.74 17-13.2 29l-9.86 21.8h-7.44l-2.93-8.25c-1.61-4.54-4.42-12.4-6.24-17.6-1.82-5.12-3.66-8.94-4.09-8.5-0.435 0.444-3.68 8.23-7.22 17.3l-6.43 16.5-3.93 0.297-3.93 0.297zm510-8.83c0-2.5-2.99-7.81-5.51-9.8-3.28-2.58-9.05-2.86-12.3-0.607-2.63 1.84-5.22 6.5-5.22 9.39 0 1.95 0.574 2.05 11.5 2.05 7.24 0 11.5-0.382 11.5-1.03zm-19.3 36.9c-5.63-1.33-8.96-3.33-13-7.82-5.73-6.34-7.05-10.2-7.1-21.1-0.0398-7.82 0.354-10.4 2.23-14.5 2.83-6.22 7.45-11.2 12.7-13.6 4.64-2.15 15.6-2.54 21.6-0.758 8.98 2.69 15.5 12.1 16.6 24.2l0.626 6.7h-19.1c-21.3 0-20.2-0.44-18.1 7.13 2.75 9.9 13.9 12.5 20.4 4.74l2.59-3.07 6.12 1.08c3.37 0.593 6.31 1.27 6.55 1.51 0.914 0.914-2.76 6.43-6.59 9.89-6.35 5.73-16 7.87-25.4 5.64zm-39.7-36.9c0-2.5-2.99-7.81-5.51-9.8-3.28-2.58-9.05-2.86-12.3-0.607-2.63 1.84-5.22 6.5-5.22 9.39 0 1.95 0.574 2.05 11.5 2.05 7.24 0 11.5-0.382 11.5-1.03zm-19.3 36.9c-5.63-1.33-8.96-3.33-13-7.82-5.73-6.34-7.05-10.2-7.1-21.1-0.0398-7.82 0.354-10.4 2.23-14.5 2.83-6.22 7.45-11.2 12.7-13.6 4.64-2.15 15.6-2.54 21.6-0.758 8.98 2.69 15.5 12.1 16.6 24.2l0.626 6.7h-19.1c-21.3 0-20.2-0.44-18.1 7.13 2.75 9.9 13.9 12.5 20.4 4.74l2.59-3.07 6.12 1.08c3.37 0.593 6.31 1.27 6.55 1.51 0.914 0.914-2.76 6.43-6.59 9.89-6.35 5.73-16 7.87-25.4 5.64zm-150-0.864c-7.23-2.48-14.8-10.4-17.3-18-4.54-14.1 0.668-29.1 12.6-36.5 4.03-2.49 6.08-3.02 13-3.39 6.36-0.334 9-0.0546 11.4 1.21 3.08 1.59 3.18 1.84 3.18 8.2 0 3.61-0.338 6.38-0.75 6.17-8.39-4.32-13.5-4.66-18.7-1.24-6.56 4.3-9.22 17.3-5.01 24.5 4.45 7.62 14.1 10.3 21.2 6.01l3.25-1.98v13.9l-5.18 1.54c-6.74 2-11.1 1.9-17.8-0.416zm-186 1.08c-4.16-1.08-7.53-2.94-10.7-5.88l-2.69-2.5 3.17-4.21 3.17-4.21 3.98 2.88c3.23 2.34 4.82 2.83 8.48 2.59 3.63-0.239 4.78-0.793 5.94-2.87 2.79-4.99 0.998-7.53-8.61-12.2-9.91-4.82-12.4-7.54-13-14.4-0.501-5.68 2.51-12.5 6.97-15.7 5.15-3.76 20.5-3.21 26.1 0.936 1.85 1.36 1.82 1.53-0.886 5.43-3.12 4.5-3.24 4.55-5.96 2.49-2.4-1.82-7.58-1.9-9.95-0.169-1.18 0.864-1.66 2.29-1.44 4.25 0.298 2.62 1.36 3.46 9.34 7.45 11 5.48 13.5 8.63 13.5 16.7 0 5.33-1.67 10-4.87 13.7-4.19 4.77-15.4 7.64-22.6 5.77zm-126-37.1c0.977-1.58-2.04-7.56-4.99-9.88-3.28-2.58-9.05-2.86-12.3-0.607-2.63 1.84-5.22 6.5-5.22 9.39 0 1.94 0.578 2.05 10.9 2.05 6.02 0 11.2-0.43 11.5-0.956zm-19.7 36.6c-8.73-2.35-14.9-8.23-18-17-4.26-12.3-0.526-29.1 8.13-36.4 5.75-4.87 18.2-6.73 27.1-4.05 8.98 2.69 15.5 12.1 16.6 24.2l0.626 6.7h-19.1c-21.3 0-20.2-0.44-18.1 7.13 2.75 9.9 13.9 12.5 20.4 4.74l2.59-3.07 6.12 1.08c3.37 0.593 6.31 1.27 6.55 1.51 0.914 0.914-2.76 6.43-6.59 9.89-6.66 6.02-16.4 8-26.3 5.33zm-93.6-13.8c3.92-2 7.17-7.9 7.59-13.8 0.791-10.9-5.7-18.6-15.1-17.8-8.03 0.692-12.7 6.85-12.7 16.7 0 12.2 10.4 19.8 20.2 14.8zm-16.2 14.2c-14.6-4.44-22.9-21.3-18.6-38 3.13-12.2 11-20.1 21-20.9 7.38-0.612 11.9 0.37 15.4 3.32 1.61 1.35 3.42 2.46 4.03 2.46 0.769 0 1.11-5.79 1.11-19v-19h15v90h-7.5c-7.33 0-7.5-0.0556-7.5-2.5 0-3.08-0.335-3.09-4.32-0.138-5.68 4.22-12.5 5.58-18.7 3.7zm183 41.5c-3.27-3.27-3.29-8.46-0.0607-12.2 1.91-2.22 3.24-2.78 6.61-2.78 5.31 0 9 3.72 9 9.06 0 7.66-10 11.5-15.5 5.94zm303 29v-43.5h15v87h-15zm-158 15.5v-28h7.5c7.33 0 7.5 0.0556 7.5 2.5 0 3.05 1.08 3.17 3.59 0.398 1.05-1.16 3.12-2.73 4.61-3.5 3.07-1.59 11.4-1.89 12.3-0.441 0.325 0.526 0.291 3.88-0.0753 7.46-0.601 5.86-0.845 6.41-2.47 5.54-2.66-1.42-7.63-1.17-11 0.554-5.58 2.89-6.43 6.09-6.8 25.7l-0.332 17.8h-14.8v-28zm-146 0v-28h16v56h-16zm-64 0v-28h7.5c7.33 0 7.5 0.0556 7.5 2.5 0 2.73 1.45 3.37 2.34 1.05 1.06-2.77 8.27-5.55 14.4-5.53 7.4 0.021 12.8 2.94 15.7 8.48 1.91 3.66 2.11 5.96 2.39 26.8l0.302 22.8h-15.1v-19.5c0-24.6-0.69-26.5-9.91-26.5-4.58 0-7.86 3.1-9.15 8.65-0.491 2.12-0.903 11.4-0.916 20.6l-0.0239 16.8h-15zm99.5 2.31c-6.59-14.7-12.3-27.5-12.7-28.5-0.658-1.66-0.028-1.81 7.53-1.81h8.25l6.53 15.8c3.59 8.66 6.95 15.6 7.47 15.4 0.519-0.194 3.42-7.28 6.44-15.7l5.5-15.4 8.24-8e-3 8.24-8e-3 -2.33 5.25c-1.28 2.89-7.01 15.7-12.7 28.5l-10.4 23.2-4.02 9e-3 -4.02 9e-3 -12-26.7zm235 12c12-8.84 6.68-31.3-7.35-31.3-7.89 0-14 7.47-14 17.1 0 12.9 12.2 21 21.4 14.2zm-20.1 14c-5.53-1.96-12.6-9.8-14.9-16.6-3.78-10.9-1.7-24.3 5.17-33.3 3.56-4.66 11.7-8.41 18.2-8.41 5.45 0 11.7 2.37 14.2 5.42 1.57 1.89 3.07 1.17 3.07-1.47 0-1.75 0.743-1.94 7.5-1.94h7.5v56h-7.5c-7.33 0-7.5-0.0556-7.5-2.5 0-2.89-1.17-3.21-3.13-0.842-4 4.83-14.5 6.55-22.6 3.69zm-53.8 0.0539c-2.23-0.793-5.6-2.72-7.47-4.29l-3.41-2.84 3.45-4.5 3.45-4.5 3.72 2.99c6.83 5.49 15.8 3.37 15.8-3.72 0-3-2.08-4.66-11.3-9.01-9.09-4.28-11.7-7.53-11.7-14.5 0.0426-10.5 6.23-17.2 16.6-17.8 6.42-0.409 15.2 1.73 17.3 4.19 1.5 1.81-3.67 8.96-5.82 8.05-5.53-2.33-6.99-2.65-9.36-2.05-1.46 0.365-3.14 1.58-3.73 2.69-2.04 3.82-0.193 5.84 9.6 10.5 8.11 3.87 9.69 5.03 11.4 8.42 3.32 6.51 2.1 15.9-2.78 21.4-5.1 5.74-17.2 8.1-25.8 5.04zm-74.1-36.2c0.27-0.437-0.343-2.66-1.36-4.93-2.94-6.57-10.7-9.31-15.9-5.64-2.44 1.71-6.33 9.21-5.49 10.6 0.27 0.437 5.39 0.794 11.4 0.794s11.1-0.357 11.4-0.794zm-21.4 36.3c-6.11-1.98-11.5-6.69-14.8-12.9-2.45-4.65-2.72-6.16-2.72-15.6 0-8.6 0.382-11.3 2.11-15 4.54-9.67 13.2-15 24.3-15 8.06 8e-3 12.7 1.62 17.6 6.09 5.12 4.72 8.1 11.2 9.06 19.7l0.706 6.24h-38.3v3.03c0 7.06 5.82 14 11.8 14 3.23 5e-3 7.65-2.47 9.88-5.53 1.88-2.58 1.94-2.59 8.6-1.43 3.69 0.643 6.71 1.37 6.71 1.62 0 3.14-7.42 11.1-13 13.9-4.66 2.36-16.1 2.87-22 0.974zm-216 1.42c-11.7-1.37-19.9-7.95-24-19.3-2.07-5.72-2.24-8.23-2.65-37.9l-0.433-31.8h16l0.378 30.8c0.417 33.9 0.863 36.6 6.94 41.7 5.74 4.83 14.8 4.29 20.1-1.19 4.89-5.1 5.76-11.6 5.76-43v-28.3h16l-0.0174 28.8c-0.019 31.5-0.902 39-5.45 46.8-6.12 10.4-17.6 15.2-32.7 13.4z" fill="#000000"/>
           <path d="m509 108c5.54-2.83 11.1-9.5 12.9-15.6 1.86-6.27 1.85-7.98-0.117-14.7-1.98-6.75-9.73-14.8-16-16.7-17.3-5.16-33.3 6.54-33.4 24.3-0.0385 10.7 6.64 20.3 16.6 24 5.2 1.93 14.8 1.25 20-1.43zm-123 0.0244c4.82-2.46 9.76-7.82 12-13 2.02-4.71 2.1-14.6 0.153-19.3-7.22-17.2-30.4-21.3-42.6-7.41-4.62 5.26-6.36 9.91-6.36 17 0 11.7 6.81 20.9 18.2 24.6 4.14 1.36 14.2 0.313 18.6-1.93zm33 194c-29-3.72-57.4-18.6-74.6-39.2-3.33-3.98-8.27-11.7-11-17.2-9.16-18.2-8.44-7.34-8.77-134l-0.288-112h99.1v207h25v-207h99l-0.0174 109c-0.0189 119 0.164 115-5.74 130-8.32 21.4-29.3 41.9-54 52.9-20.8 9.18-45.7 12.7-68.6 9.81z" fill="#006a54"/>
      </g> <!--  andrews-mcmeel-universal-logo -->

      <g id="pc-magazine-logo" transform="translate(576,606) scale(0.06)">
        <path d="m0.283 1.15e3c-0.261-0.688-0.36-260-0.219-575l0.256-574h445 445v575 575l-445 0.251c-355 0.201-445-6e-4 -445-1zm883-574v-568h-438-437v568 568h437 438v-568zm-855 546c-0.262-0.688-0.361-51.7-0.219-113l0.257-112h417 417v113 113l-417 0.251c-333 0.201-417-6e-4 -417-1zm318-20.6c4.31-2.21 7.19-5.04 10.1-9.96 2.2-3.67 2.23-3.65 6.62 4.03l2.71 4.75h5.46 5.46v-49.5-49.5h-19.5-19.5v10.5 10.5h6.5 6.5v19.3c0 30.2-2.79 39.7-11.6 39.7-10.2 0-13.1-12.7-14-61.5-0.915-46.2 1.59-78.5 6.56-84.6 1.27-1.57 2.93-2.19 6.04-2.27 3.59-0.0828 4.63 0.357 6.42 2.73 2.01 2.66 2.13 3.97 2.13 22.3v19.4l12.7-4e-4 12.7-3e-4 0.734-2.75c1.18-4.42 0.751-26.2-0.645-32.7-1.58-7.38-4.28-13-8.41-17.3-4.26-4.52-9.05-6.83-17.1-8.23-22.4-3.91-38.9 7.87-47.5 34.1-9.34 28.4-9.81 96.1-0.858 123 5.44 16.6 13.6 25.9 25.8 29.4 6.23 1.77 17.8 0.997 22.7-1.52zm-269-64.9 0.257-63.7 8.28 53.5c4.55 29.4 9 58.1 9.88 63.7l1.6 10.2h12.2 12.2l9.04-63.2 9.04-63.3 0.119 63.3 0.119 63.2h16 16v-90.5-90.5h-21.4-21.4l-1.07 5.25c-2.13 10.5-17.1 91.8-17.1 92.9 0 4.03-1.93-4.43-9.51-41.7-4.68-23.1-9.23-45.2-10.1-49.2l-1.59-7.25h-19.4-19.4v90.5 90.5h13 13l0.257-63.7zm140 60.5c0.317-1.79 1.58-8.88 2.81-15.8l2.23-12.5 10.4-0.287c5.72-0.158 10.8 0.069 11.2 0.504 0.435 0.435 2.01 7.65 3.5 16l2.71 15.2h16.9 16.9l-0.521-2.25c-0.287-1.24-7.87-42-16.9-90.5l-16.3-88.3-16 0.274-16 0.274-14.7 89c-8.11 49-14.8 89.6-14.8 90.2-0.0218 0.942 3.41 1.25 13.9 1.25h14l0.577-3.25zm5.47-46.5c-0.0664-2.85 8.44-74.2 8.8-73.8 0.273 0.273 9.15 72.4 9.22 74.8 0.0107 0.412-4.03 0.75-8.98 0.75-7.89 0-9.01-0.216-9.04-1.75zm202 33.8c1.51-8.52 2.77-15.6 2.8-15.8s4.95-0.25 10.9-0.25h10.9l0.562 3.25c0.309 1.79 1.05 7.75 1.65 13.2s1.33 11.2 1.63 12.8l0.542 2.75h16.4c14.4 0 16.4-0.198 16.4-1.6 0-1.39-29.2-160-32.1-174l-1.06-5.25h-14.8-14.8l-0.576 2.75c-0.317 1.51-6.87 41-14.6 87.8-7.69 46.8-14.2 86.2-14.5 87.8l-0.508 2.78 14.2-0.277 14.2-0.277 2.75-15.5zm2.83-32.8c-0.0603-2.75 8.27-71.1 8.84-72.6 0.563-1.43 9.32 67.1 9.21 72.1-0.0209 0.905-2.51 1.25-9.03 1.25-4.95 0-9.01-0.338-9.02-0.75zm157 36.8v-12h-26.1c-24.8 0-26.1-0.09-25.6-1.83 0.264-1.01 11.6-32.2 25.1-69.3l24.6-67.5v-9.16-9.16h-37.5-37.5v11 11h21c16.6 0 21 0.274 21 1.3 0 0.717-11.5 31.6-25.5 68.7l-25.5 67.4v10.8 10.8h43 43v-12zm50-78.5v-90.5h-16-16v90.5 90.5h16 16v-90.5zm54.2 41.2 0.259-49.2 16.5 49.2 16.5 49.2h11.3 11.3v-90.5-90.5h-12-12l-0.26 46.7-0.26 46.8-15.6-46.5-15.6-46.5-15.2-0.276-15.2-0.276v90.5 90.5h15 15l0.259-49.2zm157 37.2v-12h-22.5-22.5v-29-29h17 17v-12-12l-16.8-0.274-16.8-0.274v-26-26l19.2-0.272 19.2-0.272v-11-11h-35.5-35.5v90.5 90.5h38.5 38.5v-12zm-818-247 0.261-41.2h11 11l0.264 30.8 0.264 30.8h85.5 85.5l0.264-30.8 0.264-30.8 128-0.254 128-0.254 9.24 9.25c28.4 28.4 67.3 44.3 123 50.3 31.5 3.37 70.6 2.91 98.3-1.16 44-6.46 79.6-24.4 100-50.4l6.33-8.03 23.1 0.268 23.1 0.268 0.261 41.2 0.261 41.2h-418-418l0.261-41.2zm0.46-54.4c-0.384-0.384-0.698-19.1-0.698-41.5v-40.8h11.5 11.5l-0.261 41.2-0.261 41.2-10.6 0.282c-5.8 0.155-10.9-0.0325-11.2-0.417zm194-0.0318c-0.367-0.367-0.667-19-0.667-41.5v-40.8h115 115l0.0258 5.75c0.1 22.3 5.73 48.6 14.6 68 1.87 4.11 3.4 7.86 3.4 8.34 0 1.01-246 1.22-247 0.208zm604-1.56c0.319-1.25 2.15-6.77 4.06-12.3 5.91-17 9.6-39.6 9.6-59v-9.54h11.5 11.5l-0.261 41.2-0.261 41.2-18.4 0.273-18.4 0.273 0.58-2.27zm-175-40.1c-6.82-1.56-9.08-2.79-12.4-6.69-3.9-4.64-5.63-11.9-5.63-23.7v-10.3h25.6 25.6l-0.573 11.2c-0.67 13.2-1.86 17.4-6.36 22.7-5.57 6.51-15.9 9.16-26.3 6.76zm-622-55.3c-0.384-0.384-0.698-19.1-0.698-41.5v-40.8h11.5 11.5l-0.261 41.2-0.261 41.2-10.6 0.282c-5.8 0.155-10.9-0.0325-11.2-0.417zm194-0.0318c-0.367-0.367-0.667-19-0.667-41.5v-40.8h115 115v41.5 41.5h-114c-62.9 0-115-0.3-115-0.667zm410-40.8v-41.5h25.5 25.5l-0.261 41.2-0.261 41.2-25.2 0.267-25.2 0.267v-41.5zm208 40.8c-0.384-0.384-0.698-19.1-0.698-41.5v-40.8h11.5 11.5l-0.261 41.2-0.261 41.2-10.6 0.282c-5.8 0.155-10.9-0.0325-11.3-0.417zm-813-136v-41h11.5 11.5v41 41h-11.5-11.5v-41zm194 30.2v-10.8l36.8-0.65c37.5-0.664 50.6-1.72 67.8-5.51 33.6-7.37 61.2-24.2 77.9-47.5l4.73-6.63h21.4 21.4v41 41h-115-115v-10.8zm411-30.2v-41h115 115v41 41h-11.5-11.5v-34.5-34.5h-78-78v34.5 34.5h-25.5-25.5v-41zm-605-97v-41h11.5 11.5v41 41h-11.5-11.5v-41zm389 40.7c0-0.154 1.5-3.87 3.33-8.25 6.79-16.3 9.57-31.2 10.4-55.7l0.588-17.8h10.3 10.3v41 41h-17.5c-9.62 0-17.5-0.126-17.5-0.28zm216-40.7v-41h115 115v41 41h-115-115v-41zm-410-5.6c-0.402-0.402-0.73-8.53-0.73-18.1v-17.3h24.6 24.6l-0.674 5.08c-2.18 16.5-10.7 25.7-26.7 28.7-7.76 1.49-20.3 2.42-21.2 1.56zm-194-90.6 0.261-40.2h11 11l0.261 40.2 0.261 40.2h-11.5-11.5l0.261-40.2zm194 0 0.261-40.2 25.2-0.267 25.2-0.267v40.5 40.5h-25.5-25.5l0.261-40.2zm209 0 0.261-40.2 10.2-0.285 10.2-0.285v40.5 40.5h-10.5-10.5l0.261-40.2zm202-0.267v-40.5l25.2 0.267 25.2 0.267 0.263 33.8 0.263 33.8h78 78l0.263-33.8 0.263-33.8h11 11l0.261 40.2 0.261 40.2h-115-115v-40.5zm-605-95.7 0.261-41.2h11 11l0.261 41.2 0.261 41.2h-11.5-11.5l0.261-41.2zm194 0 0.261-41.2 25.2-0.267 25.2-0.267v41.5 41.5h-25.5-25.5l0.261-41.2zm209 0 0.261-41.2 10.2-0.285 10.2-0.285v41.5 41.5h-10.5-10.5l0.261-41.2zm202-0.267v-41.5l25.2 0.267 25.2 0.267 0.261 41.2 0.261 41.2h-25.5-25.5v-41.5zm207 0.267 0.261-41.2h11 11l0.261 41.2 0.261 41.2h-11.5-11.5l0.261-41.2zm-812-97 0.261-41.2h11 11l0.261 41.2 0.261 41.2h-11.5-11.5l0.261-41.2zm194 23.1v-18.1l9.45 0.664c17 1.19 29 6.52 34.6 15.4 2.81 4.43 6.95 15.7 6.95 18.9 0 1.16-4.36 1.39-25.5 1.39h-25.5v-18.1zm210 16.9c-0.214-0.688-0.628-8.45-0.921-17.2-0.769-23.2-4.42-41.9-11.1-57-1.4-3.15-2.54-6.13-2.54-6.61 0-0.947 52.3-1.25 53.2-0.306 0.313 0.313-1.15 4.25-3.26 8.75-9.23 19.7-14.8 45.2-14.9 67.9l-0.0258 5.75h-10c-7.15 0-10.1-0.359-10.4-1.25zm201-9.07c0-13.2 1.88-19.9 6.97-24.8 9.46-9.02 29.2-8.42 37.3 1.14 4.53 5.3 5.72 9.51 6.39 22.7l0.573 11.2h-25.6-25.6v-10.3zm207 0.779c0-19.5-3.95-42.5-10.6-61.6-1.88-5.4-3.42-10.3-3.42-10.9 0-0.723 5.85-0.977 18.2-0.792l18.2 0.273 0.261 41.2 0.261 41.2h-11.5-11.5v-9.54zm-812-127v-41.5h417 418v41.5 41.5h-23.3-23.3l-6.31-8.02c-20.6-26.2-55.9-43.8-101-50.5-37.7-5.58-92.4-3.88-130 4.05-38.9 8.2-67.8 22.9-88.9 45.1l-8.8 9.29h-35.9-35.9l-4.92-7.25c-21.3-31.4-57.8-49.4-109-53.7-7.26-0.616-57.9-1.02-128-1.03l-116-0.0103v31 31h-11.5-11.5v-41.5z" fill="#fc1a1c"/>
      </g> <!-- pc-magazine-logo -->
    </g> <!--  freelance-work-logos -->


    <!-- +++++++++++++++++++++++++ ++++++++++++++++++++++++++++ ++++++++++ -->
    <g id="skills-icons">
        <g transform="translate(472,984) scale(0.109)">
          <title>HTML5 Logo</title>
          <path d="m33 370-33-370h363l-33 370-149 41.2" fill="#e44d26"/>
          <path d="m181 380v-349h148l-28.3 316" fill="#f16529"/>
          <path d="m67.4 75.7h114v45.4h-64.2l4.2 46.5h60v45.3h-102m2 22.8h45.6l3.2 36.3 50.8 13.6v47.4l-93.2-26" fill="#ebebeb"/>
          <path d="m295 75.7h-114v45.4h110m-4.1 46.5h-106v45.4h56l-5.3 59-50.7 13.6v47.2l93-25.8" fill="#ffffff"/>
        </g>

        <g id="css-icon" transform="translate(525,974) scale(0.113)">
          <g id="#0170baff">
             <path d="m0 92.5c114-0.01 228-0.02 342 0-6.27 70.8-12.4 142-19 213-3.88 45.3-7.88 90.5-12.1 136-24.3 6.44-48.4 13.8-72.7 20.2-22.3 6.55-44.8 12.5-67.2 19h-0.66c-21.2-6.32-42.7-11.9-64-18.2-25.1-6.76-49.9-14.3-75-21-3.27-33.9-6.22-67.8-9.13-102-5.49-62.7-11.5-125-16.7-188-1.83-18.9-3.14-37.8-5.33-56.6v-1.87m171 28c-0.24 13.6 0.18 27.2-0.24 40.8-39.1-0.14-78.2-0.03-117 0.01 0.67 13.2 2.44 26.3 4.26 39.4 36.4 1.35 72.8-0.05 109 1.04-31.8 14.3-64 27.7-96 41.7-2.74 1.22-5.67 2.14-8.12 3.92 0.27 14.5 2.61 28.9 3.64 43.4 19.4-0.07 38.8-0.38 58.1-0.41 15.5-0.08 31.1 0.23 46.6-0.11-0.74 23.9 0.23 47.8-0.5 71.6-10.4-1.55-20.8-3.88-31.2-5.73-8.21-1.79-16.6-2.72-24.7-5.07-1.15-11.4-1.95-22.9-2.97-34.4-2.34-0.72-4.82-0.65-7.24-0.69-11.7 0.07-23.5-0.04-35.2 0.14 1.15 22 3.13 44 6.5 65.8 11.6 3.02 23.2 5.98 34.7 9.13 17.7 4.82 35.6 8.83 53.4 13.6 2.11 0.45 4.24 1.23 6.43 1.05 1.18 14.5 0.27 29.1 0.49 43.6 4.09-0.66 8.11-1.67 12.1-2.89 33.6-9.12 67.1-18.4 101-27.6 1.67-13.2 2.45-26.5 3.77-39.7 3.49-40.2 7.01-80.4 10.7-121 4.29-46 8-92 12.3-138-46.5 0.04-92.9-0.09-139 0.06z" fill="#0170ba"/>
          </g>
          <g id="#29a9dfff" fill="#29a9df">
             <path d="m171 120c46.5-0.15 92.9-0.02 139-0.06-4.32 46-8.03 92-12.3 138-3.66 40.2-7.18 80.4-10.7 121-1.32 13.2-2.1 26.5-3.77 39.7-33.6 9.21-67.1 18.5-101 27.6-3.95 1.22-7.97 2.23-12.1 2.89-0.22-14.5 0.69-29.1-0.49-43.6 0.3-0.06 0.91-0.18 1.21-0.24 31.2-7.84 62.2-16.5 93.4-24.6 3.94-44.2 8.31-88.4 11.1-133-26.5 0.14-53 0.06-79.5 0.17-3.86 0.02-7.72 0-11.6-0.28 14.3-7.34 29.3-13.2 43.9-19.7 14-6.37 28.3-12.3 42.4-18.6 2.72-1.25 5.62-2.29 8.01-4.15 0.94-3.45 0.89-7.06 1.26-10.6 0.81-11.2 2.25-22.3 2.79-33.6-37.5-0.3-75.1-0.04-113-0.24 0.42-13.6 0-27.2 0.24-40.8z"/>
             <path d="m172 290c18.1-0.31 36.2 0.18 54.4 0.06-1.01 18.5-2.55 37-3.51 55.6-11.1 3.63-22.4 6.7-33.6 10.1-5.97 1.82-12.1 3.26-17.8 5.93 0.73-23.9-0.24-47.8 0.5-71.6z"/>
          </g>
          <g id="#cfcfcfff" fill="#cfcfcf">
             <path d="m53.9 161c39.1-0.04 78.2-0.15 117-0.01 0.51 43-0.13 86 0.43 129-15.5 0.34-31.1 0.03-46.6 0.11-19.4 0.03-38.8 0.34-58.1 0.41-1.03-14.5-3.37-28.9-3.64-43.4 2.45-1.78 5.38-2.7 8.12-3.92 32-14 64.2-27.4 96-41.7-36.4-1.09-72.8 0.31-109-1.04-1.82-13.1-3.59-26.2-4.26-39.4z"/>
             <path d="m69.8 316c11.8-0.18 23.5-0.07 35.2-0.14 2.42 0.04 4.9-0.03 7.24 0.69 1.02 11.5 1.82 23 2.97 34.4 8.09 2.35 16.5 3.28 24.7 5.07 10.4 1.85 20.7 4.18 31.2 5.73 1 14.5-0.75 29.1 0.92 43.6-0.3 0.06-0.91 0.18-1.21 0.24-2.19 0.18-4.32-0.6-6.43-1.05-17.7-4.74-35.7-8.75-53.4-13.6-11.6-3.15-23.2-6.11-34.7-9.13-3.37-21.8-5.35-43.8-6.5-65.8z"/>
          </g>
          <g id="#ffffffff">
             <path d="m171 161c37.5 0.2 75.1-0.06 113 0.24-0.54 11.2-1.98 22.4-2.79 33.6-0.37 3.53-0.32 7.14-1.26 10.6-2.39 1.86-5.29 2.9-8.01 4.15-14.1 6.25-28.3 12.2-42.4 18.6-14.6 6.55-29.6 12.4-43.9 19.7 3.84 0.28 7.7 0.3 11.6 0.28 26.5-0.11 53-0.03 79.5-0.17-2.77 44.3-7.14 88.5-11.1 133-31.2 8.12-62.2 16.8-93.4 24.6-1.67-14.5 0.08-29.1-0.92-43.6 5.68-2.67 11.8-4.11 17.8-5.93 11.2-3.36 22.5-6.43 33.6-10.1 0.96-18.5 2.5-37 3.51-55.6-18.1 0.12-36.3-0.37-54.4-0.06-0.56-43 0.08-86-0.43-129z" fill="#ffffff"/>
          </g>
       </g><!--  css icon -->

       <g id="javascript-icon"  transform="translate(578,974) scale(0.133)">
          <path d="m27.1 386-27.1-304h297l-27.1 304-122 33.8-121-33.7z" fill="#d4b830"/>
          <path d="m149 394 98.4-27.3 23.2-259h-122v287z" fill="#fdd83c"/>
          <g id="Group" transform="translate(55,142)">
             <path d="m196 75.5h-52.5v-38.1h55.8l3.3-37.2h-98v113h50.8l-4.48 48.3-46.3 8.43v38.8l81.1-18.5z" fill="#4d4d4d"/>
             <path d="m83.8 0.125h-83.2l3.45 37.3 42.3 3.4e-4v127l-20.7-3.03-2.65-29.7h-37.4l5.22 58.5c92.9 18.5 0.352-0.0135 92.9 18.5z" fill="#000000"/>
          </g>
       </g> <!-- JS icon -->

       <g id="es6-icon"  transform="translate(631,984) scale(0.133)">
         <polygon transform="translate(-1.09e-6 -82.5)" points="270 386 149 420 27.1 386 0 82.5 297 82.5" fill="#ffcc33"/>
         <polygon transform="translate(-1.09e-6 -82.5)" points="149 107 149 394 247 367 270 107" fill="#f8dc3d"/>
         <g transform="translate(-1.09e-6 -82.5)">
           <g fill="#ffffff">
             <polygon points="190 306 149 317 149 355 225 334 226 328 235 230 149 210 149 247 195 257"/>
             <polygon points="225 182 225 143 149 122 149 160"/>
           </g>
           <polygon points="149 160 149 160 149 122 149 122 72.3 143 62.4 220 62.4 220 62.4 220 62.4 220 62.4 220 65.7 257 65.9 257 72.6 334 149 355 149 355 149 317 149 317 107 306 103 257 149 247 149 210 101 220 107 172" fill="#ebebeb"/>
         </g>
       </g> <!-- es6 icon -->

        <g transform="translate(684,984) scale(0.09)"> <!-- github octocat icon -->
          <path d="m409 115c-19.6-33.6-46.2-60.2-79.8-79.8-33.6-19.6-70.3-29.4-110-29.4-39.8 0-76.5 9.8-110 29.4-33.6 19.6-60.2 46.2-79.8 79.8-19.6 33.6-29.4 70.3-29.4 110 0 47.8 13.9 90.7 41.8 129 27.9 38.2 63.9 64.6 108 79.2 5.14 0.954 8.94 0.283 11.4-2 2.48-2.28 3.71-5.14 3.71-8.56 0-0.571-0.049-5.71-0.144-15.4-0.098-9.71-0.144-18.2-0.144-25.4l-6.57 1.14c-4.19 0.767-9.47 1.09-15.8 1-6.37-0.089-13-0.757-19.8-2-6.85-1.23-13.2-4.09-19.1-8.56-5.9-4.47-10.1-10.3-12.6-17.6l-2.86-6.57c-1.9-4.37-4.9-9.23-8.99-14.6-4.09-5.33-8.23-8.94-12.4-10.8l-2-1.43c-1.33-0.951-2.57-2.1-3.71-3.43-1.14-1.33-2-2.66-2.57-4-0.572-1.34-0.098-2.43 1.43-3.29s4.28-1.28 8.28-1.28l5.71 0.853c3.81 0.763 8.52 3.04 14.1 6.85 5.61 3.81 10.2 8.75 13.8 14.8 4.38 7.81 9.66 13.8 15.8 17.8 6.18 4.09 12.4 6.14 18.7 6.14s11.7-0.476 16.3-1.42c4.56-0.952 8.85-2.38 12.8-4.28 1.71-12.8 6.38-22.6 14-29.4-10.8-1.14-20.6-2.86-29.3-5.14-8.66-2.29-17.6-6-26.8-11.1-9.24-5.14-16.9-11.5-23-19.1-6.09-7.61-11.1-17.6-15-30-3.9-12.4-5.85-26.6-5.85-42.8 0-23 7.52-42.6 22.6-58.8-7.04-17.3-6.38-36.7 2-58.2 5.52-1.72 13.7-0.428 24.6 3.85 10.8 4.28 18.8 7.95 23.8 11 5.05 3.04 9.09 5.62 12.1 7.71 17.7-4.95 36-7.42 54.8-7.42s37.1 2.47 54.8 7.42l10.8-6.85c7.42-4.57 16.2-8.76 26.3-12.6 10.1-3.8 17.8-4.85 23.1-3.14 8.56 21.5 9.32 40.9 2.28 58.2 15 16.2 22.6 35.8 22.6 58.8 0 16.2-1.96 30.5-5.85 43-3.9 12.5-8.94 22.5-15.1 30-6.19 7.52-13.9 13.8-23.1 19-9.23 5.14-18.2 8.85-26.8 11.1-8.66 2.29-18.4 4-29.3 5.15 9.89 8.56 14.8 22.1 14.8 40.5v60.2c0 3.42 1.19 6.28 3.57 8.56 2.38 2.28 6.14 2.95 11.3 2 44.2-14.7 80.2-41.1 108-79.2 27.9-38.2 41.8-81.1 41.8-129-0.01-39.8-9.82-76.5-29.4-110z"/>
        </g>
    </g><!-- skills-icons -->
  </g> <!-- diagram-tree -->

<!-- line x1="432" y1="984" x2="770" y2="984" stroke-width="1px" stroke="red" stroke-linecap="butt" />
<line x1="432" y1="968" x2="770" y2="968" stroke-width="1px" stroke="red" stroke-linecap="butt" / -->


<!-- +++++++++++++++++++++++++ ++++++++++++++++++++++++++++ ++++++++++ -->
  <g id="contact-info-text">
    <text id="text10" text-start="left" x="418pt" y="166pt" style="text-anchor:left; font-weight:500;">
        <tspan>48 Walnut Street</tspan>
        <tspan x="418pt" y="180pt">Montclair, NJ 07043</tspan>
        <tspan x="418pt" y="194pt">973-200-4224</tspan>
        <tspan x="418pt" y="208pt">rsperberg@gmail.com</tspan>
        <tspan x="418pt" y="222pt">super-script.us</tspan>
    </text>
  </g> <!-- contact-info-text -->

  <g id="freelance-work-text">
    <text id="text21" text-start="left" x="350pt" y="348pt" style="text-anchor:left;">Some of the publishers I have worked for as a</text>
    <text id="text22" x="350pt" y="362pt">proofreader, copyeditor, writer or consultant</text>
  </g>
  <g id="education-text">
    <text id="text11" text-start="left" x="72pt" y="650pt" style="text-anchor:left; font-weight:500;">Bachelor of Journalism, <tspan class="italic">cum laude</tspan></text>
    <text id="text12" text-start="left"  x="72pt" y="664pt">University of Texas at Austin</text>
    <text id="text13" text-start="left" x="72pt" y="680pt">Bachelor of Science, <tspan class="italic">magna cum laude</tspan></text>
    <text id="text14" text-start="left" x="72pt" y="694pt">Economics</text>
    <text id="text15" text-start="left" x="72pt" y="708pt">University of Texas at Austin</text>
  </g> <!-- education-text -->

    <g id="skills-text">
      <text id="text16" text-start="middle" x="491" y="981" class="skill">HTML5</text>
      <text id="text17" text-start="middle" x="544" y="981" class="skill">CSS</text>
      <text id="text18" text-start="middle" x="597" y="981" class="skill">JavaScript</text>
      <text id="text19" text-start="middle" x="650" y="981" class="skill">ES6</text>
      <text id="text20" text-start="middle" x="703" y="981" class="skill">GitHub</text>
    </g> <!-- skills-text -->
</svg>
